<svg width="40" height="40" viewBox="0 0 40 40" fill="none" xmlns="http://www.w3.org/2000/svg">
<path d="M26.666 20V16.6667H29.9993V20H26.666ZM26.666 23.3333H23.3327V20H26.666V23.3333ZM26.666 26.6667V23.3333H29.9993V26.6667H26.666ZM18.6402 13.3333L15.3068 10H7.17893C7.02921 10 6.90629 10.0481 6.81018 10.1442C6.71407 10.2403 6.66602 10.3632 6.66602 10.5129V29.4871C6.66602 29.6368 6.71407 29.7597 6.81018 29.8558C6.90629 29.9519 7.02921 30 7.17893 30H23.3327V26.6667H26.666V30H32.8198C32.9695 30 33.0924 29.9519 33.1885 29.8558C33.2846 29.7597 33.3327 29.6368 33.3327 29.4871V13.8463C33.3327 13.6965 33.2846 13.5736 33.1885 13.4775C33.0924 13.3814 32.9695 13.3333 32.8198 13.3333H26.666V16.6667H23.3327V13.3333H18.6402ZM7.17893 32.5C6.33699 32.5 5.62435 32.2083 5.04102 31.625C4.45768 31.0417 4.16602 30.329 4.16602 29.4871V10.5129C4.16602 9.67097 4.45768 8.95833 5.04102 8.375C5.62435 7.79167 6.33699 7.5 7.17893 7.5H15.0827C15.4843 7.5 15.8706 7.57806 16.2414 7.73417C16.612 7.89 16.9341 8.10472 17.2077 8.37833L19.6627 10.8333H32.8198C33.6617 10.8333 34.3743 11.125 34.9577 11.7083C35.541 12.2917 35.8327 13.0043 35.8327 13.8463V29.4871C35.8327 30.329 35.541 31.0417 34.9577 31.625C34.3743 32.2083 33.6617 32.5 32.8198 32.5H7.17893Z" fill="#FD686B"/>
</svg>
