<svg width="24" height="24" viewBox="0 0 24 24" fill="none" xmlns="http://www.w3.org/2000/svg">
<path d="M11.3859 19.5C11.1345 19.5 10.9243 19.4153 10.7551 19.246C10.5858 19.0768 10.5011 18.8666 10.5011 18.6152V12.827L4.90312 5.7155C4.71078 5.459 4.68287 5.19233 4.81937 4.9155C4.95603 4.6385 5.18653 4.5 5.51087 4.5H18.4914C18.8157 4.5 19.0462 4.6385 19.1829 4.9155C19.3194 5.19233 19.2915 5.459 19.0991 5.7155L13.5011 12.827V18.6152C13.5011 18.8666 13.4165 19.0768 13.2471 19.246C13.078 19.4153 12.8677 19.5 12.6164 19.5H11.3859ZM12.0011 12.3L16.9511 6H7.05112L12.0011 12.3Z" fill="#D2D3D3"/>
</svg>
