<svg width="40" height="40" viewBox="0 0 40 40" fill="none" xmlns="http://www.w3.org/2000/svg">
<path d="M7.17893 32.5C6.33699 32.5 5.62435 32.2083 5.04102 31.625C4.45768 31.0417 4.16602 30.329 4.16602 29.4871V10.5129C4.16602 9.67097 4.45768 8.95833 5.04102 8.375C5.62435 7.79167 6.33699 7.5 7.17893 7.5H15.0827C15.4844 7.5 15.8706 7.57806 16.2414 7.73417C16.612 7.89 16.9341 8.10472 17.2077 8.37833L19.6627 10.8333H32.8198C33.6617 10.8333 34.3744 11.125 34.9577 11.7083C35.541 12.2917 35.8327 13.0043 35.8327 13.8462V16.9229C35.8327 17.2776 35.713 17.5747 35.4735 17.8142C35.2344 18.0533 34.9374 18.1729 34.5827 18.1729C34.228 18.1729 33.931 18.0533 33.6919 17.8142C33.4524 17.5747 33.3327 17.2776 33.3327 16.9229V13.8462C33.3327 13.7179 33.2792 13.6004 33.1723 13.4937C33.0656 13.3868 32.9481 13.3333 32.8198 13.3333H18.6402L15.3069 10H7.17893C7.02921 10 6.90629 10.0481 6.81018 10.1442C6.71407 10.2403 6.66602 10.3632 6.66602 10.5129V29.4871C6.66602 29.6154 6.71949 29.7329 6.82643 29.8396C6.9331 29.9465 7.0506 30 7.17893 30H18.621C18.9757 30 19.2728 30.1197 19.5123 30.3592C19.7514 30.5983 19.871 30.8953 19.871 31.25C19.871 31.6047 19.7514 31.9017 19.5123 32.1408C19.2728 32.3803 18.9757 32.5 18.621 32.5H7.17893ZM23.5252 34.3267V32.0575C23.5252 31.8567 23.5614 31.6656 23.6339 31.4842C23.7067 31.3025 23.821 31.1336 23.9769 30.9775L32.5731 22.4229C32.7803 22.2157 33.0046 22.0699 33.246 21.9854C33.4874 21.9012 33.7289 21.8592 33.9706 21.8592C34.2289 21.8592 34.4816 21.9082 34.7285 22.0062C34.9752 22.1046 35.1969 22.2521 35.3935 22.4487L36.9352 24.0062C37.1146 24.2137 37.2535 24.4382 37.3519 24.6796C37.4502 24.921 37.4994 25.1624 37.4994 25.4037C37.4994 25.6451 37.4545 25.8908 37.3648 26.1408C37.275 26.3908 37.1319 26.6194 36.9352 26.8267L28.3806 35.3812C28.2248 35.5374 28.056 35.6517 27.8744 35.7242C27.6927 35.7969 27.5014 35.8333 27.3006 35.8333H25.0314C24.602 35.8333 24.2435 35.6896 23.956 35.4021C23.6688 35.1149 23.5252 34.7564 23.5252 34.3267ZM25.5123 33.8462H27.0956L32.5056 28.41L31.7398 27.6183L30.9639 26.8367L25.5123 32.2629V33.8462ZM31.7398 27.6183L30.9639 26.8367L32.5056 28.41L31.7398 27.6183Z" fill="#42DA68"/>
</svg>
