<svg width="52" height="51" viewBox="0 0 52 51" fill="none" xmlns="http://www.w3.org/2000/svg">
<rect x="0.5" y="0.5" width="51" height="50" rx="4.5" stroke="#9747FF" stroke-dasharray="10 5"/>
<path d="M20.3077 31.5C19.8091 31.5 19.3831 31.3234 19.0298 30.9703C18.6766 30.6169 18.5 30.1909 18.5 29.6923V20.3077C18.5 19.8091 18.6766 19.3831 19.0298 19.0298C19.3831 18.6766 19.8091 18.5 20.3077 18.5H21.5V16.5C21.5 15.2513 21.9378 14.1892 22.8135 13.3135C23.6892 12.4378 24.7513 12 26 12C27.2487 12 28.3108 12.4378 29.1865 13.3135C30.0622 14.1892 30.5 15.2513 30.5 16.5V18.5H31.6923C32.1909 18.5 32.6169 18.6766 32.9703 19.0298C33.3234 19.3831 33.5 19.8091 33.5 20.3077V29.6923C33.5 30.1909 33.3234 30.6169 32.9703 30.9703C32.6169 31.3234 32.1909 31.5 31.6923 31.5H20.3077ZM20.3077 30H31.6923C31.7821 30 31.8558 29.9712 31.9135 29.9135C31.9712 29.8558 32 29.7821 32 29.6923V20.3077C32 20.2179 31.9712 20.1442 31.9135 20.0865C31.8558 20.0288 31.7821 20 31.6923 20H20.3077C20.2179 20 20.1442 20.0288 20.0865 20.0865C20.0288 20.1442 20 20.2179 20 20.3077V29.6923C20 29.7821 20.0288 29.8558 20.0865 29.9135C20.1442 29.9712 20.2179 30 20.3077 30ZM26 26.75C26.4858 26.75 26.899 26.5798 27.2395 26.2395C27.5798 25.899 27.75 25.4858 27.75 25C27.75 24.5142 27.5798 24.101 27.2395 23.7605C26.899 23.4202 26.4858 23.25 26 23.25C25.5142 23.25 25.101 23.4202 24.7605 23.7605C24.4202 24.101 24.25 24.5142 24.25 25C24.25 25.4858 24.4202 25.899 24.7605 26.2395C25.101 26.5798 25.5142 26.75 26 26.75ZM23 18.5H29V16.5C29 15.6667 28.7083 14.9583 28.125 14.375C27.5417 13.7917 26.8333 13.5 26 13.5C25.1667 13.5 24.4583 13.7917 23.875 14.375C23.2917 14.9583 23 15.6667 23 16.5V18.5Z" fill="#D2D3D3"/>
</svg>
