<svg width="132" height="64" viewBox="0 0 132 64" fill="none" xmlns="http://www.w3.org/2000/svg">
<rect x="0.5" y="0.5" width="131" height="63" rx="4.5" stroke="#9747FF" stroke-dasharray="10 5"/>
<path d="M29 35.4115C28.8795 35.4115 28.7673 35.3923 28.6635 35.3538C28.5597 35.3154 28.4609 35.2494 28.3673 35.1558L25.2577 32.0463C25.1091 31.8974 25.0357 31.7233 25.0375 31.524C25.0395 31.3247 25.1129 31.1474 25.2577 30.9923C25.4129 30.8373 25.5911 30.7572 25.7923 30.752C25.9936 30.7468 26.1718 30.8218 26.327 30.977L28.25 32.9V25.25C28.25 25.0372 28.3218 24.859 28.4655 24.7155C28.609 24.5718 28.7872 24.5 29 24.5C29.2128 24.5 29.391 24.5718 29.5345 24.7155C29.6782 24.859 29.75 25.0372 29.75 25.25V32.9L31.673 30.977C31.8218 30.8283 31.9984 30.7549 32.2027 30.7568C32.4072 30.7588 32.5871 30.8373 32.7423 30.9923C32.8871 31.1474 32.9621 31.3231 32.9673 31.5192C32.9724 31.7154 32.8974 31.8911 32.7423 32.0463L29.6328 35.1558C29.5391 35.2494 29.4403 35.3154 29.3365 35.3538C29.2327 35.3923 29.1205 35.4115 29 35.4115ZM23.3077 39.5C22.8026 39.5 22.375 39.325 22.025 38.975C21.675 38.625 21.5 38.1974 21.5 37.6923V35.7308C21.5 35.5179 21.5718 35.3398 21.7155 35.1963C21.859 35.0526 22.0372 34.9808 22.25 34.9808C22.4628 34.9808 22.641 35.0526 22.7845 35.1963C22.9282 35.3398 23 35.5179 23 35.7308V37.6923C23 37.7693 23.0321 37.8398 23.0963 37.9038C23.1603 37.9679 23.2307 38 23.3077 38H34.6923C34.7693 38 34.8398 37.9679 34.9038 37.9038C34.9679 37.8398 35 37.7693 35 37.6923V35.7308C35 35.5179 35.0718 35.3398 35.2155 35.1963C35.359 35.0526 35.5372 34.9808 35.75 34.9808C35.9628 34.9808 36.141 35.0526 36.2845 35.1963C36.4282 35.3398 36.5 35.5179 36.5 35.7308V37.6923C36.5 38.1974 36.325 38.625 35.975 38.975C35.625 39.325 35.1974 39.5 34.6923 39.5H23.3077Z" fill="#D2D3D3"/>
<path d="M66 35.4115C65.8795 35.4115 65.7673 35.3923 65.6635 35.3538C65.5597 35.3154 65.4609 35.2494 65.3673 35.1558L62.2577 32.0463C62.1091 31.8974 62.0357 31.7233 62.0375 31.524C62.0395 31.3247 62.1129 31.1474 62.2577 30.9923C62.4129 30.8373 62.5911 30.7572 62.7923 30.752C62.9936 30.7468 63.1718 30.8218 63.327 30.977L65.25 32.9V25.25C65.25 25.0372 65.3218 24.859 65.4655 24.7155C65.609 24.5718 65.7872 24.5 66 24.5C66.2128 24.5 66.391 24.5718 66.5345 24.7155C66.6782 24.859 66.75 25.0372 66.75 25.25V32.9L68.673 30.977C68.8218 30.8283 68.9984 30.7549 69.2027 30.7568C69.4072 30.7588 69.5871 30.8373 69.7423 30.9923C69.8871 31.1474 69.9621 31.3231 69.9673 31.5192C69.9724 31.7154 69.8974 31.8911 69.7423 32.0463L66.6328 35.1558C66.5391 35.2494 66.4403 35.3154 66.3365 35.3538C66.2327 35.3923 66.1205 35.4115 66 35.4115ZM60.3077 39.5C59.8026 39.5 59.375 39.325 59.025 38.975C58.675 38.625 58.5 38.1974 58.5 37.6923V35.7308C58.5 35.5179 58.5718 35.3398 58.7155 35.1963C58.859 35.0526 59.0372 34.9808 59.25 34.9808C59.4628 34.9808 59.641 35.0526 59.7845 35.1963C59.9282 35.3398 60 35.5179 60 35.7308V37.6923C60 37.7693 60.0321 37.8398 60.0963 37.9038C60.1603 37.9679 60.2307 38 60.3077 38H71.6923C71.7693 38 71.8398 37.9679 71.9038 37.9038C71.9679 37.8398 72 37.7693 72 37.6923V35.7308C72 35.5179 72.0718 35.3398 72.2155 35.1963C72.359 35.0526 72.5372 34.9808 72.75 34.9808C72.9628 34.9808 73.141 35.0526 73.2845 35.1963C73.4282 35.3398 73.5 35.5179 73.5 35.7308V37.6923C73.5 38.1974 73.325 38.625 72.975 38.975C72.625 39.325 72.1974 39.5 71.6923 39.5H60.3077Z" fill="#2C41EB"/>
<path d="M97.3077 39.5C96.8026 39.5 96.375 39.325 96.025 38.975C95.675 38.625 95.5 38.1974 95.5 37.6922V35.7307C95.5 35.5179 95.5718 35.3397 95.7155 35.1962C95.859 35.0525 96.0372 34.9807 96.25 34.9807C96.4628 34.9807 96.641 35.0525 96.7845 35.1962C96.9282 35.3397 97 35.5179 97 35.7307V37.6922C97 37.7692 97.0321 37.8397 97.0963 37.9037C97.1603 37.9679 97.2307 38 97.3077 38H108.692C108.769 38 108.84 37.9679 108.904 37.9037C108.968 37.8397 109 37.7692 109 37.6922V35.7307C109 35.5179 109.072 35.3397 109.216 35.1962C109.359 35.0525 109.537 34.9807 109.75 34.9807C109.963 34.9807 110.141 35.0525 110.285 35.1962C110.428 35.3397 110.5 35.5179 110.5 35.7307V37.6922C110.5 38.1974 110.325 38.625 109.975 38.975C109.625 39.325 109.197 39.5 108.692 39.5H97.3077ZM102.25 27.3885L100.327 29.3115C100.178 29.4601 100.002 29.5335 99.7973 29.5317C99.5928 29.5297 99.4129 29.4511 99.2577 29.296C99.1129 29.141 99.0379 28.9654 99.0327 28.7692C99.0276 28.573 99.1026 28.3974 99.2577 28.2422L102.367 25.1327C102.461 25.039 102.56 24.973 102.664 24.9347C102.767 24.8962 102.88 24.877 103 24.877C103.121 24.877 103.233 24.8962 103.336 24.9347C103.44 24.973 103.539 25.039 103.633 25.1327L106.742 28.2422C106.891 28.3909 106.964 28.565 106.963 28.7645C106.961 28.9638 106.887 29.141 106.742 29.296C106.587 29.4511 106.409 29.5313 106.208 29.5365C106.006 29.5416 105.828 29.4666 105.673 29.3115L103.75 27.3885V35.0385C103.75 35.2513 103.678 35.4295 103.535 35.573C103.391 35.7166 103.213 35.7885 103 35.7885C102.787 35.7885 102.609 35.7166 102.465 35.573C102.322 35.4295 102.25 35.2513 102.25 35.0385V27.3885Z" fill="#D2D3D3"/>
</svg>
