<svg width="30" height="30" viewBox="0 0 30 30" fill="none" xmlns="http://www.w3.org/2000/svg">
<g clip-path="url(#clip0_897_8278)">
<path d="M12.9103 13.6634L13.8809 10.0411L9.32996 8.82171C9.71618 7.75189 10.4159 6.95586 11.4291 6.43363C12.4424 5.91144 13.5057 5.79949 14.6189 6.09778L19.7456 7.47146L18.9841 10.3135L22.5878 8.23304L24.0365 8.6212L22.1252 15.7541L20.6766 15.3659L18.5958 11.7623L17.7397 14.9574L12.9103 13.6634ZM11.3706 22.8271C11.1341 22.7637 10.9549 22.6264 10.8329 22.4151C10.7111 22.2041 10.6819 21.9802 10.7453 21.7436L12.5197 15.1214L17.349 16.4155L15.5746 23.0376C15.5112 23.2743 15.374 23.4535 15.1629 23.5754C14.9517 23.6973 14.7278 23.7266 14.4913 23.6633L11.3706 22.8271Z" fill="#D2D3D3"/>
</g>
<defs>
<clipPath id="clip0_897_8278">
<rect width="24" height="24" fill="white" transform="translate(6.51562 0.302734) rotate(15)"/>
</clipPath>
</defs>
</svg>
