<svg width="130" height="50" viewBox="0 0 130 50" fill="none" xmlns="http://www.w3.org/2000/svg">
<rect x="0.5" y="0.5" width="129" height="49" rx="4.5" stroke="#9747FF" stroke-dasharray="10 5"/>
<path d="M98.5 29.4446V20.5561C98.5 20.2921 98.5906 20.0754 98.7717 19.9061C98.9529 19.7369 99.1643 19.6523 99.406 19.6523C99.4815 19.6523 99.5607 19.6633 99.6435 19.6851C99.7263 19.7068 99.8054 19.7394 99.8808 19.7831L106.877 24.2368C107.014 24.3305 107.117 24.4427 107.185 24.5733C107.254 24.7042 107.288 24.8465 107.288 25.0003C107.288 25.1542 107.254 25.2965 107.185 25.4273C107.117 25.558 107.014 25.6702 106.877 25.7638L99.8808 30.2176C99.8053 30.2613 99.7259 30.2939 99.6427 30.3156C99.5597 30.3374 99.4805 30.3483 99.405 30.3483C99.1632 30.3483 98.9519 30.2638 98.7713 30.0946C98.5904 29.9253 98.5 29.7086 98.5 29.4446Z" fill="#D2D3D3"/>
<path d="M68.5 31.5C68.091 31.5 67.7387 31.3523 67.4432 31.0568C67.1477 30.7613 67 30.409 67 30V20C67 19.591 67.1477 19.2387 67.4432 18.9432C67.7387 18.6477 68.091 18.5 68.5 18.5H69.25C69.659 18.5 70.0113 18.6477 70.3068 18.9432C70.6023 19.2387 70.75 19.591 70.75 20V30C70.75 30.409 70.6023 30.7613 70.3068 31.0568C70.0113 31.3523 69.659 31.5 69.25 31.5H68.5ZM60.75 31.5C60.341 31.5 59.9888 31.3523 59.6933 31.0568C59.3978 30.7613 59.25 30.409 59.25 30V20C59.25 19.591 59.3978 19.2387 59.6933 18.9432C59.9888 18.6477 60.341 18.5 60.75 18.5H61.5C61.909 18.5 62.2612 18.6477 62.5567 18.9432C62.8522 19.2387 63 19.591 63 20V30C63 30.409 62.8522 30.7613 62.5567 31.0568C62.2612 31.3523 61.909 31.5 61.5 31.5H60.75Z" fill="#D2D3D3"/>
<path d="M28.0005 26.0533L22.9275 31.1265C22.789 31.2649 22.6149 31.3357 22.4053 31.339C22.1958 31.3422 22.0185 31.2714 21.8735 31.1265C21.7287 30.9815 21.6562 30.8059 21.6562 30.5995C21.6562 30.3932 21.7287 30.2175 21.8735 30.0725L26.9468 24.9995L21.8735 19.9265C21.7352 19.788 21.6643 19.6139 21.661 19.4043C21.6578 19.1948 21.7287 19.0175 21.8735 18.8725C22.0185 18.7277 22.1942 18.6553 22.4005 18.6553C22.6068 18.6553 22.7825 18.7277 22.9275 18.8725L28.0005 23.9458L33.0735 18.8725C33.212 18.7342 33.3861 18.6634 33.5958 18.66C33.8053 18.6569 33.9825 18.7277 34.1275 18.8725C34.2723 19.0175 34.3448 19.1932 34.3448 19.3995C34.3448 19.6059 34.2723 19.7815 34.1275 19.9265L29.0543 24.9995L34.1275 30.0725C34.2658 30.211 34.3367 30.3851 34.34 30.5948C34.3432 30.8043 34.2723 30.9815 34.1275 31.1265C33.9825 31.2714 33.8068 31.3438 33.6005 31.3438C33.3942 31.3438 33.2185 31.2714 33.0735 31.1265L28.0005 26.0533Z" fill="#D2D3D3"/>
</svg>
