<svg width="24" height="24" viewBox="0 0 24 24" fill="none" xmlns="http://www.w3.org/2000/svg">
<path d="M7.48075 18.6152H16.5193C16.4594 17.8777 16.2352 17.2004 15.8465 16.5832C15.4578 15.9662 14.9455 15.477 14.3095 15.1155L15.1682 13.5788C15.1984 13.5186 15.2036 13.4517 15.1837 13.378C15.1637 13.3042 15.1174 13.2506 15.0447 13.2173C14.9867 13.1839 14.925 13.1756 14.8595 13.1923C14.7942 13.2089 14.7464 13.2473 14.7163 13.3075L13.8328 14.8845C13.5378 14.764 13.2385 14.6711 12.935 14.6058C12.6313 14.5404 12.3201 14.5078 12.0012 14.5078C11.6824 14.5078 11.3724 14.541 11.0713 14.6075C10.7699 14.674 10.4686 14.7663 10.1673 14.8845L9.2885 13.3078C9.25517 13.2373 9.20417 13.1988 9.1355 13.1923C9.067 13.1859 8.9975 13.1994 8.927 13.2328C8.9205 13.2328 8.89033 13.3481 8.8365 13.5788L9.7 15.1155C9.066 15.4767 8.55275 15.9658 8.16025 16.583C7.76775 17.2003 7.54125 17.8777 7.48075 18.6152ZM9.97125 17.2595C9.85075 17.2595 9.74525 17.2143 9.65475 17.124C9.56442 17.0337 9.51925 16.9283 9.51925 16.8078C9.51925 16.6873 9.56442 16.5818 9.65475 16.4913C9.74525 16.4009 9.85075 16.3557 9.97125 16.3557C10.0918 16.3557 10.1956 16.4009 10.2828 16.4913C10.3699 16.5818 10.4135 16.6873 10.4135 16.8078C10.4135 16.9283 10.3693 17.0337 10.2808 17.124C10.1923 17.2143 10.0891 17.2595 9.97125 17.2595ZM14.0385 17.2595C13.918 17.2595 13.8125 17.2143 13.722 17.124C13.6317 17.0337 13.5865 16.9283 13.5865 16.8078C13.5865 16.6873 13.6317 16.5818 13.722 16.4913C13.8125 16.4009 13.918 16.3557 14.0385 16.3557C14.159 16.3557 14.2644 16.4009 14.3548 16.4913C14.4451 16.5818 14.4902 16.6873 14.4902 16.8078C14.4902 16.9283 14.4451 17.0337 14.3548 17.124C14.2644 17.2143 14.159 17.2595 14.0385 17.2595ZM6.30775 21.5C5.80258 21.5 5.375 21.325 5.025 20.975C4.675 20.625 4.5 20.1974 4.5 19.6923V4.30775C4.5 3.80258 4.675 3.375 5.025 3.025C5.375 2.675 5.80258 2.5 6.30775 2.5H13.502C13.7458 2.5 13.9782 2.54683 14.1992 2.6405C14.4202 2.734 14.6128 2.86283 14.777 3.027L18.973 7.223C19.1372 7.38717 19.266 7.57975 19.3595 7.80075C19.4532 8.02175 19.5 8.25417 19.5 8.498V19.6923C19.5 20.1974 19.325 20.625 18.975 20.975C18.625 21.325 18.1974 21.5 17.6923 21.5H6.30775ZM13.5 7.6C13.5 7.855 13.5862 8.06875 13.7587 8.24125C13.9312 8.41375 14.145 8.5 14.4 8.5H18L13.5 4V7.6Z" fill="#D2D3D3"/>
</svg>
