<svg width="40" height="40" viewBox="0 0 40 40" fill="none" xmlns="http://www.w3.org/2000/svg">
<path d="M7.17893 32.5C6.33699 32.5 5.62435 32.2083 5.04102 31.625C4.45768 31.0417 4.16602 30.329 4.16602 29.4871V10.5129C4.16602 9.67097 4.45768 8.95833 5.04102 8.375C5.62435 7.79167 6.33699 7.5 7.17893 7.5H32.8198C33.6617 7.5 34.3743 7.79167 34.9577 8.375C35.541 8.95833 35.8327 9.67097 35.8327 10.5129V29.4871C35.8327 30.329 35.541 31.0417 34.9577 31.625C34.3743 32.2083 33.6617 32.5 32.8198 32.5H7.17893ZM7.17893 30H32.8198C32.9481 30 33.0656 29.9465 33.1723 29.8396C33.2792 29.7329 33.3327 29.6154 33.3327 29.4871V13.3333H6.66602V29.4871C6.66602 29.6154 6.71949 29.7329 6.82643 29.8396C6.9331 29.9465 7.0506 30 7.17893 30ZM15.0506 21.6667L11.5956 18.2117C11.3478 17.9636 11.2255 17.6708 11.2285 17.3333C11.2318 16.9958 11.3627 16.7031 11.621 16.455C11.8691 16.2244 12.1618 16.1075 12.4993 16.1042C12.8368 16.1011 13.1296 16.2235 13.3777 16.4713L17.5185 20.6121C17.8199 20.9135 17.9706 21.265 17.9706 21.6667C17.9706 22.0683 17.8199 22.4199 17.5185 22.7213L13.3614 26.8783C13.1306 27.1089 12.8449 27.2258 12.5043 27.2292C12.1635 27.2322 11.8691 27.1099 11.621 26.8621C11.3905 26.6313 11.2752 26.3439 11.2752 26C11.2752 25.6561 11.3905 25.3687 11.621 25.1379L15.0506 21.6667ZM21.666 27.9167C21.3113 27.9167 21.0143 27.7969 20.7752 27.5575C20.5357 27.3183 20.416 27.0214 20.416 26.6667C20.416 26.3119 20.5357 26.015 20.7752 25.7758C21.0143 25.5364 21.3113 25.4167 21.666 25.4167H28.3327C28.6874 25.4167 28.9843 25.5364 29.2235 25.7758C29.463 26.015 29.5827 26.3119 29.5827 26.6667C29.5827 27.0214 29.463 27.3183 29.2235 27.5575C28.9843 27.7969 28.6874 27.9167 28.3327 27.9167H21.666Z" fill="#2C41EB"/>
</svg>
