<svg width="86" height="50" viewBox="0 0 86 50" fill="none" xmlns="http://www.w3.org/2000/svg">
<rect x="0.5" y="0.5" width="85" height="49" rx="4.5" stroke="#9747FF" stroke-dasharray="10 5"/>
<path d="M22.3077 33.4997C21.8106 33.4997 21.385 33.3227 21.031 32.9687C20.677 32.6147 20.5 32.1892 20.5 31.692V18.9997H20.25C20.0375 18.9997 19.8594 18.9278 19.7158 18.784C19.5719 18.6402 19.5 18.462 19.5 18.2495C19.5 18.0368 19.5719 17.8587 19.7158 17.7152C19.8594 17.5716 20.0375 17.4997 20.25 17.4997H24C24 17.2549 24.0863 17.0462 24.2588 16.8737C24.4311 16.7014 24.6397 16.6152 24.8845 16.6152H29.1155C29.3603 16.6152 29.5689 16.7014 29.7413 16.8737C29.9138 17.0462 30 17.2549 30 17.4997H33.75C33.9625 17.4997 34.1406 17.5717 34.2843 17.7155C34.4281 17.8593 34.5 18.0375 34.5 18.25C34.5 18.4627 34.4281 18.6407 34.2843 18.7842C34.1406 18.9279 33.9625 18.9997 33.75 18.9997H33.5V31.692C33.5 32.1892 33.323 32.6147 32.969 32.9687C32.615 33.3227 32.1894 33.4997 31.6923 33.4997H22.3077ZM32 18.9997H22V31.692C22 31.7818 22.0288 31.8556 22.0865 31.9132C22.1442 31.9709 22.2179 31.9997 22.3077 31.9997H31.6923C31.7821 31.9997 31.8558 31.9709 31.9135 31.9132C31.9712 31.8556 32 31.7818 32 31.692V18.9997ZM25.1543 29.9997C25.3668 29.9997 25.5448 29.9279 25.6885 29.7842C25.832 29.6404 25.9037 29.4622 25.9037 29.2497V21.7497C25.9037 21.5372 25.8318 21.3591 25.688 21.2152C25.5443 21.0716 25.3662 20.9997 25.1535 20.9997C24.941 20.9997 24.7629 21.0716 24.6192 21.2152C24.4757 21.3591 24.404 21.5372 24.404 21.7497V29.2497C24.404 29.4622 24.4758 29.6404 24.6195 29.7842C24.7633 29.9279 24.9416 29.9997 25.1543 29.9997ZM28.8465 29.9997C29.059 29.9997 29.2371 29.9279 29.3807 29.7842C29.5243 29.6404 29.596 29.4622 29.596 29.2497V21.7497C29.596 21.5372 29.5242 21.3591 29.3805 21.2152C29.2367 21.0716 29.0584 20.9997 28.8458 20.9997C28.6333 20.9997 28.4552 21.0716 28.3115 21.2152C28.168 21.3591 28.0962 21.5372 28.0962 21.7497V29.2497C28.0962 29.4622 28.1682 29.6404 28.312 29.7842C28.4557 29.9279 28.6338 29.9997 28.8465 29.9997Z" fill="#D2D3D3"/>
<path d="M54.3077 33.4997C53.8091 33.4997 53.3831 33.3232 53.0298 32.97C52.6766 32.6167 52.5 32.1907 52.5 31.692V18.9997H52.25C52.0372 18.9997 51.859 18.9279 51.7155 18.7842C51.5718 18.6407 51.5 18.4626 51.5 18.2497C51.5 18.0369 51.5718 17.8587 51.7155 17.7152C51.859 17.5716 52.0372 17.4997 52.25 17.4997H56C56 17.2549 56.0863 17.0462 56.2588 16.8737C56.4311 16.7014 56.6397 16.6152 56.8845 16.6152H61.1155C61.3603 16.6152 61.5689 16.7014 61.7413 16.8737C61.9138 17.0462 62 17.2549 62 17.4997H65.75C65.9628 17.4997 66.141 17.5716 66.2845 17.7152C66.4282 17.8587 66.5 18.0369 66.5 18.2497C66.5 18.4626 66.4282 18.6407 66.2845 18.7842C66.141 18.9279 65.9628 18.9997 65.75 18.9997H65.5V31.692C65.5 32.1907 65.3234 32.6167 64.9703 32.97C64.6169 33.3232 64.1909 33.4997 63.6923 33.4997H54.3077ZM64 18.9997H54V31.692C54 31.7818 54.0288 31.8556 54.0865 31.9132C54.1442 31.9709 54.2179 31.9997 54.3077 31.9997H63.6923C63.7821 31.9997 63.8558 31.9709 63.9135 31.9132C63.9712 31.8556 64 31.7818 64 31.692V18.9997ZM59 26.5535L61.073 28.6267C61.2115 28.7651 61.3856 28.8359 61.5953 28.8392C61.8048 28.8424 61.982 28.7716 62.127 28.6267C62.2718 28.4817 62.3443 28.3061 62.3443 28.0997C62.3443 27.8934 62.2718 27.7177 62.127 27.5727L60.0538 25.4997L62.127 23.4267C62.2653 23.2882 62.3362 23.1142 62.3395 22.9045C62.3427 22.695 62.2718 22.5177 62.127 22.3727C61.982 22.2279 61.8063 22.1555 61.6 22.1555C61.3937 22.1555 61.218 22.2279 61.073 22.3727L59 24.446L56.927 22.3727C56.7885 22.2344 56.6144 22.1636 56.4048 22.1602C56.1953 22.1571 56.018 22.2279 55.873 22.3727C55.7282 22.5177 55.6558 22.6934 55.6558 22.8997C55.6558 23.1061 55.7282 23.2817 55.873 23.4267L57.9463 25.4997L55.873 27.5727C55.7347 27.7112 55.6638 27.8853 55.6605 28.095C55.6573 28.3045 55.7282 28.4817 55.873 28.6267C56.018 28.7716 56.1937 28.844 56.4 28.844C56.6063 28.844 56.782 28.7716 56.927 28.6267L59 26.5535Z" fill="#D2D3D3"/>
</svg>
