<svg width="100" height="100" viewBox="0 0 100 100" fill="none" xmlns="http://www.w3.org/2000/svg">
<path d="M16.9337 81.25C15.1386 81.25 13.6035 80.6052 12.3285 79.3156C11.0535 78.0267 10.416 76.499 10.416 74.7323V25.2677C10.416 23.501 11.0535 21.9733 12.3285 20.6844C13.6035 19.3948 15.1386 18.75 16.9337 18.75H39.1869C40.0598 18.75 40.9035 18.9264 41.7181 19.2792C42.5327 19.6319 43.2393 20.0983 43.8379 20.6781L49.2004 26.0688H83.065C84.8316 26.0688 86.3594 26.7132 87.6483 28.0021C88.9379 29.2917 89.5827 30.8194 89.5827 32.5854V74.7323C89.5827 76.499 88.9379 78.0267 87.6483 79.3156C86.3594 80.6052 84.8316 81.25 83.065 81.25H16.9337Z" fill="#5A5C5D"/>
</svg>
