<svg width="52" height="52" viewBox="0 0 52 52" fill="none" xmlns="http://www.w3.org/2000/svg">
<rect x="0.5" y="0.5" width="51" height="51" rx="4.5" stroke="#9747FF" stroke-dasharray="10 5"/>
<path d="M26 30.7308C26.2288 30.7308 26.4207 30.6533 26.5755 30.4985C26.7303 30.3437 26.8077 30.1518 26.8077 29.923C26.8077 29.6942 26.7303 29.5023 26.5755 29.3475C26.4207 29.1928 26.2288 29.1155 26 29.1155C25.7712 29.1155 25.5793 29.1928 25.4245 29.3475C25.2697 29.5023 25.1923 29.6942 25.1923 29.923C25.1923 30.1518 25.2697 30.3437 25.4245 30.4985C25.5793 30.6533 25.7712 30.7308 26 30.7308ZM26.0003 27.077C26.2129 27.077 26.391 27.0051 26.5345 26.8613C26.6782 26.7176 26.75 26.5395 26.75 26.327V21.827C26.75 21.6145 26.6781 21.4363 26.5343 21.2925C26.3904 21.1488 26.2122 21.077 25.9998 21.077C25.7871 21.077 25.609 21.1488 25.4655 21.2925C25.3218 21.4363 25.25 21.6145 25.25 21.827V26.327C25.25 26.5395 25.3219 26.7176 25.4658 26.8613C25.6096 27.0051 25.7878 27.077 26.0003 27.077ZM26.0017 35.5C24.6877 35.5 23.4527 35.2507 22.2965 34.752C21.1403 34.2533 20.1347 33.5766 19.2795 32.7218C18.4243 31.8669 17.7472 30.8617 17.2482 29.706C16.7494 28.5503 16.5 27.3156 16.5 26.0017C16.5 24.6877 16.7493 23.4527 17.248 22.2965C17.7467 21.1403 18.4234 20.1347 19.2783 19.2795C20.1331 18.4243 21.1383 17.7472 22.294 17.2482C23.4497 16.7494 24.6844 16.5 25.9983 16.5C27.3123 16.5 28.5473 16.7493 29.7035 17.248C30.8597 17.7467 31.8653 18.4234 32.7205 19.2783C33.5757 20.1331 34.2528 21.1383 34.7518 22.294C35.2506 23.4497 35.5 24.6844 35.5 25.9983C35.5 27.3123 35.2507 28.5473 34.752 29.7035C34.2533 30.8597 33.5766 31.8653 32.7218 32.7205C31.8669 33.5757 30.8617 34.2528 29.706 34.7518C28.5503 35.2506 27.3156 35.5 26.0017 35.5ZM26 34C28.2333 34 30.125 33.225 31.675 31.675C33.225 30.125 34 28.2333 34 26C34 23.7667 33.225 21.875 31.675 20.325C30.125 18.775 28.2333 18 26 18C23.7667 18 21.875 18.775 20.325 20.325C18.775 21.875 18 23.7667 18 26C18 28.2333 18.775 30.125 20.325 31.675C21.875 33.225 23.7667 34 26 34Z" fill="#D2D3D3"/>
</svg>
