<svg width="20" height="20" viewBox="0 0 20 20" fill="none" xmlns="http://www.w3.org/2000/svg">
<path d="M4.16602 15.8334H5.21727L13.7477 7.30294L12.6964 6.25169L4.16602 14.7821V15.8334ZM3.66935 17.0834C3.45588 17.0834 3.27699 17.0111 3.13268 16.8667C2.98824 16.7224 2.91602 16.5435 2.91602 16.33V14.8863C2.91602 14.6831 2.95504 14.4894 3.0331 14.3052C3.11102 14.1211 3.21838 13.9606 3.35518 13.8238L13.9081 3.27564C14.0341 3.1612 14.1732 3.0728 14.3254 3.01044C14.4778 2.94794 14.6375 2.91669 14.8046 2.91669C14.9716 2.91669 15.1334 2.94634 15.29 3.00565C15.4466 3.06495 15.5853 3.15926 15.706 3.28856L16.7237 4.31898C16.853 4.43967 16.9452 4.57856 17.0002 4.73565C17.0552 4.89273 17.0827 5.04981 17.0827 5.2069C17.0827 5.37453 17.0541 5.53447 16.9969 5.68669C16.9396 5.83905 16.8486 5.97822 16.7237 6.10419L6.1756 16.6442C6.03879 16.781 5.87831 16.8884 5.69414 16.9663C5.50997 17.0443 5.31629 17.0834 5.1131 17.0834H3.66935ZM13.2129 6.78648L12.6964 6.25169L13.7477 7.30294L13.2129 6.78648Z" fill="#969898"/>
</svg>
