<svg width="51" height="51" viewBox="0 0 51 51" fill="none" xmlns="http://www.w3.org/2000/svg">
<rect x="0.5" y="0.5" width="50" height="50" rx="4.5" stroke="#9747FF" stroke-dasharray="10 5"/>
<path d="M27.5938 24.6424C28.0192 24.1795 28.334 23.6481 28.538 23.0481C28.7418 22.4481 28.8438 21.8295 28.8438 21.1924C28.8438 20.5552 28.7418 19.9366 28.538 19.3366C28.334 18.7366 28.0192 18.2052 27.5938 17.7424C28.4719 17.8437 29.2011 18.2229 29.7812 18.8799C30.3612 19.537 30.6513 20.3079 30.6513 21.1924C30.6513 22.077 30.3612 22.8479 29.7812 23.5049C29.2011 24.1619 28.4719 24.541 27.5938 24.6424ZM32.457 32.3079C32.5827 32.0784 32.6785 31.8341 32.7445 31.5751C32.8107 31.3161 32.8438 31.054 32.8438 30.7886V29.9616C32.8438 29.4165 32.7328 28.8978 32.511 28.4056C32.2892 27.9135 31.9744 27.4911 31.5668 27.1386C32.3334 27.3938 33.0392 27.738 33.684 28.1714C34.3288 28.6047 34.6513 29.2015 34.6513 29.9616V30.7886C34.6513 31.2103 34.5035 31.569 34.208 31.8646C33.9125 32.1601 33.5539 32.3079 33.1323 32.3079H32.457ZM34.6513 23.7501H33.4013C33.1888 23.7501 33.0107 23.6782 32.867 23.5344C32.7232 23.3905 32.6513 23.2124 32.6513 22.9999C32.6513 22.7872 32.7232 22.6091 32.867 22.4656C33.0107 22.322 33.1888 22.2501 33.4013 22.2501H34.6513V21.0001C34.6513 20.7876 34.7232 20.6095 34.867 20.4659C35.0108 20.322 35.1891 20.2501 35.4018 20.2501C35.6143 20.2501 35.7923 20.322 35.936 20.4659C36.0795 20.6095 36.1513 20.7876 36.1513 21.0001V22.2501H37.4013C37.6138 22.2501 37.7919 22.322 37.9358 22.4659C38.0794 22.6097 38.1513 22.7879 38.1513 23.0004C38.1513 23.213 38.0794 23.3911 37.9358 23.5346C37.7919 23.6783 37.6138 23.7501 37.4013 23.7501H36.1513V25.0001C36.1513 25.2126 36.0793 25.3907 35.9355 25.5344C35.7917 25.6782 35.6135 25.7501 35.401 25.7501C35.1883 25.7501 35.0103 25.6782 34.8668 25.5344C34.7231 25.3907 34.6513 25.2126 34.6513 25.0001V23.7501ZM23.3438 24.6924C22.3812 24.6924 21.5573 24.3497 20.8717 23.6644C20.1864 22.9789 19.8438 22.1549 19.8438 21.1924C19.8438 20.2299 20.1864 19.406 20.8717 18.7206C21.5573 18.0351 22.3812 17.6924 23.3438 17.6924C24.3063 17.6924 25.1302 18.0351 25.8155 18.7206C26.501 19.406 26.8438 20.2299 26.8438 21.1924C26.8438 22.1549 26.501 22.9789 25.8155 23.6644C25.1302 24.3497 24.3063 24.6924 23.3438 24.6924ZM15.8438 30.7886V30.0846C15.8438 29.595 15.9768 29.1415 16.2428 28.7241C16.5088 28.3068 16.8642 27.986 17.309 27.7616C18.2975 27.2771 19.2947 26.9137 20.3005 26.6714C21.3062 26.429 22.3206 26.3079 23.3438 26.3079C24.3667 26.3079 25.3812 26.429 26.387 26.6714C27.3927 26.9137 28.3898 27.2771 29.3783 27.7616C29.8231 27.986 30.1785 28.3068 30.4445 28.7241C30.7107 29.1415 30.8438 29.595 30.8438 30.0846V30.7886C30.8438 31.2103 30.696 31.569 30.4005 31.8646C30.105 32.1601 29.7463 32.3079 29.3245 32.3079H17.363C16.9412 32.3079 16.5825 32.1601 16.287 31.8646C15.9915 31.569 15.8438 31.2103 15.8438 30.7886ZM23.3438 23.1924C23.8938 23.1924 24.3646 22.9965 24.7563 22.6049C25.1479 22.2132 25.3438 21.7424 25.3438 21.1924C25.3438 20.6424 25.1479 20.1715 24.7563 19.7799C24.3646 19.3882 23.8938 19.1924 23.3438 19.1924C22.7938 19.1924 22.3229 19.3882 21.9313 19.7799C21.5396 20.1715 21.3438 20.6424 21.3438 21.1924C21.3438 21.7424 21.5396 22.2132 21.9313 22.6049C22.3229 22.9965 22.7938 23.1924 23.3438 23.1924ZM17.3438 30.8079H29.3438V30.0846C29.3438 29.8821 29.2851 29.6946 29.1678 29.5221C29.0504 29.3498 28.8911 29.2091 28.6898 29.1001C27.8283 28.6758 26.9498 28.3543 26.0545 28.1356C25.159 27.9171 24.2554 27.8079 23.3438 27.8079C22.4319 27.8079 21.5283 27.9171 20.633 28.1356C19.7375 28.3543 18.859 28.6758 17.9975 29.1001C17.7962 29.2091 17.6369 29.3498 17.5197 29.5221C17.4024 29.6946 17.3438 29.8821 17.3438 30.0846V30.8079Z" fill="#D2D3D3"/>
</svg>
