<svg width="50" height="52" viewBox="0 0 50 52" fill="none" xmlns="http://www.w3.org/2000/svg">
<rect x="0.5" y="0.5" width="49" height="51" rx="4.5" stroke="#9747FF" stroke-dasharray="10 5"/>
<path d="M25 29.1923C25.3718 29.1923 25.6908 29.0624 25.9568 28.8027C26.2228 28.5433 26.3653 28.2244 26.3845 27.8462H23.6155C23.6347 28.2244 23.7773 28.5433 24.0433 28.8027C24.3093 29.0624 24.6282 29.1923 25 29.1923ZM23 24.9615V21.8845C23 21.3345 23.1958 20.8637 23.5875 20.472C23.9792 20.0803 24.45 19.8845 25 19.8845C25.55 19.8845 26.0208 20.0803 26.4125 20.472C26.8042 20.8637 27 21.3345 27 21.8845V24.9615H23ZM25.0017 32.5C23.6877 32.5 22.4527 32.2507 21.2965 31.752C20.1403 31.2533 19.1347 30.5766 18.2795 29.7218C17.4243 28.8669 16.7472 27.8617 16.2482 26.706C15.7494 25.5503 15.5 24.3156 15.5 23.0017C15.5 21.6877 15.7493 20.4527 16.248 19.2965C16.7467 18.1403 17.4234 17.1347 18.2783 16.2795C19.1331 15.4243 20.1383 14.7472 21.294 14.2482C22.4497 13.7494 23.6844 13.5 24.9983 13.5C26.3123 13.5 27.5473 13.7493 28.7035 14.248C29.8597 14.7467 30.8653 15.4234 31.7205 16.2783C32.5757 17.1331 33.2528 18.1383 33.7518 19.294C34.2506 20.4497 34.5 21.6844 34.5 22.9983C34.5 24.3123 34.2507 25.5473 33.752 26.7035C33.2533 27.8597 32.5766 28.8653 31.7218 29.7205C30.8669 30.5757 29.8617 31.2528 28.706 31.7518C27.5503 32.2506 26.3156 32.5 25.0017 32.5ZM25 31C27.2333 31 29.125 30.225 30.675 28.675C32.225 27.125 33 25.2333 33 23C33 20.7667 32.225 18.875 30.675 17.325C29.125 15.775 27.2333 15 25 15C22.7667 15 20.875 15.775 19.325 17.325C17.775 18.875 17 20.7667 17 23C17 25.2333 17.775 27.125 19.325 28.675C20.875 30.225 22.7667 31 25 31ZM21.1923 26.577H28.8077C29.0366 26.577 29.2284 26.4996 29.3833 26.3448C29.5379 26.1899 29.6152 25.9981 29.6152 25.7692C29.6152 25.5404 29.5379 25.3486 29.3833 25.1938C29.2284 25.0389 29.0366 24.9615 28.8077 24.9615H28.6152V22.3038C28.6152 21.3704 28.372 20.5198 27.8855 19.752C27.399 18.984 26.7192 18.4962 25.8462 18.2885V17.6348C25.8462 17.3894 25.7664 17.1838 25.6067 17.018C25.4471 16.8522 25.2448 16.7693 25 16.7693C24.7552 16.7693 24.5529 16.8522 24.3933 17.018C24.2336 17.1838 24.1538 17.3894 24.1538 17.6348V18.2885C23.2807 18.4962 22.601 18.9808 22.1145 19.7422C21.628 20.5038 21.3848 21.3512 21.3848 22.2845V24.9615H21.1923C20.9634 24.9615 20.7716 25.0389 20.6168 25.1938C20.4621 25.3486 20.3848 25.5404 20.3848 25.7692C20.3848 25.9981 20.4621 26.1899 20.6168 26.3448C20.7716 26.4996 20.9634 26.577 21.1923 26.577Z" fill="#D2D3D3"/>
</svg>
