<svg width="158" height="64" viewBox="0 0 158 64" fill="none" xmlns="http://www.w3.org/2000/svg">
<rect x="0.5" y="0.5" width="157" height="63" rx="4.5" stroke="#9747FF" stroke-dasharray="10 5"/>
<path d="M26.3077 40.5C25.8026 40.5 25.375 40.325 25.025 39.975C24.675 39.625 24.5 39.1974 24.5 38.6923V25.3077C24.5 24.8026 24.675 24.375 25.025 24.025C25.375 23.675 25.8026 23.5 26.3077 23.5H39.6923C40.1974 23.5 40.625 23.675 40.975 24.025C41.325 24.375 41.5 24.8026 41.5 25.3077V38.6923C41.5 39.1974 41.325 39.625 40.975 39.975C40.625 40.325 40.1974 40.5 39.6923 40.5H26.3077ZM26.3077 39H39.6923C39.7693 39 39.8398 38.9679 39.9038 38.9038C39.9679 38.8398 40 38.7693 40 38.6923V25.3077C40 25.2307 39.9679 25.1602 39.9038 25.0962C39.8398 25.0321 39.7693 25 39.6923 25H26.3077C26.2307 25 26.1603 25.0321 26.0963 25.0962C26.0321 25.1602 26 25.2307 26 25.3077V38.6923C26 38.7693 26.0321 38.8398 26.0963 38.9038C26.1603 38.9679 26.2307 39 26.3077 39Z" fill="#D2D3D3"/>
<path d="M77.6 33.7463L75.277 31.423C75.1385 31.2847 74.9644 31.2138 74.7548 31.2105C74.5453 31.2073 74.368 31.2782 74.223 31.423C74.0782 31.568 74.0058 31.7437 74.0058 31.95C74.0058 32.1563 74.0782 32.332 74.223 32.477L76.9673 35.2213C77.1481 35.4019 77.359 35.4923 77.6 35.4923C77.841 35.4923 78.0519 35.4019 78.2328 35.2213L83.7962 29.6578C83.9346 29.5193 84.0054 29.3452 84.0087 29.1355C84.0119 28.926 83.9411 28.7488 83.7962 28.6038C83.6512 28.4589 83.4756 28.3865 83.2693 28.3865C83.0629 28.3865 82.8873 28.4589 82.7423 28.6038L77.6 33.7463ZM72.3077 40.5C71.8026 40.5 71.375 40.325 71.025 39.975C70.675 39.625 70.5 39.1974 70.5 38.6923V25.3077C70.5 24.8026 70.675 24.375 71.025 24.025C71.375 23.675 71.8026 23.5 72.3077 23.5H85.6923C86.1974 23.5 86.625 23.675 86.975 24.025C87.325 24.375 87.5 24.8026 87.5 25.3077V38.6923C87.5 39.1974 87.325 39.625 86.975 39.975C86.625 40.325 86.1974 40.5 85.6923 40.5H72.3077ZM72.3077 39H85.6923C85.7693 39 85.8398 38.9679 85.9038 38.9038C85.9679 38.8398 86 38.7693 86 38.6923V25.3077C86 25.2307 85.9679 25.1602 85.9038 25.0962C85.8398 25.0321 85.7693 25 85.6923 25H72.3077C72.2307 25 72.1603 25.0321 72.0963 25.0962C72.0321 25.1602 72 25.2307 72 25.3077V38.6923C72 38.7693 72.0321 38.8398 72.0963 38.9038C72.1603 38.9679 72.2307 39 72.3077 39Z" fill="#D2D3D3"/>
<path d="M123.6 33.7463L121.277 31.423C121.138 31.2847 120.964 31.2138 120.755 31.2105C120.545 31.2073 120.368 31.2782 120.223 31.423C120.078 31.568 120.006 31.7437 120.006 31.95C120.006 32.1563 120.078 32.332 120.223 32.477L122.967 35.2213C123.148 35.4019 123.359 35.4923 123.6 35.4923C123.841 35.4923 124.052 35.4019 124.233 35.2213L129.796 29.6578C129.935 29.5193 130.005 29.3452 130.009 29.1355C130.012 28.926 129.941 28.7488 129.796 28.6038C129.651 28.4589 129.476 28.3865 129.269 28.3865C129.063 28.3865 128.887 28.4589 128.742 28.6038L123.6 33.7463ZM118.308 40.5C117.803 40.5 117.375 40.325 117.025 39.975C116.675 39.625 116.5 39.1974 116.5 38.6923V25.3077C116.5 24.8026 116.675 24.375 117.025 24.025C117.375 23.675 117.803 23.5 118.308 23.5H131.692C132.197 23.5 132.625 23.675 132.975 24.025C133.325 24.375 133.5 24.8026 133.5 25.3077V38.6923C133.5 39.1974 133.325 39.625 132.975 39.975C132.625 40.325 132.197 40.5 131.692 40.5H118.308Z" fill="#2C41EB"/>
</svg>
