<svg width="52" height="51" viewBox="0 0 52 51" fill="none" xmlns="http://www.w3.org/2000/svg">
<rect x="0.5" y="0.5" width="51" height="50" rx="4.5" stroke="#9747FF" stroke-dasharray="10 5"/>
<path d="M18.3077 31.5C17.8026 31.5 17.375 31.325 17.025 30.975C16.675 30.625 16.5 30.1974 16.5 29.6923V18.3077C16.5 17.8026 16.675 17.375 17.025 17.025C17.375 16.675 17.8026 16.5 18.3077 16.5H33.6923C34.1974 16.5 34.625 16.675 34.975 17.025C35.325 17.375 35.5 17.8026 35.5 18.3077V29.6923C35.5 30.1974 35.325 30.625 34.975 30.975C34.625 31.325 34.1974 31.5 33.6923 31.5H18.3077ZM34 19.4423L26.4865 24.252C26.4097 24.2955 26.3302 24.3298 26.248 24.3548C26.166 24.3798 26.0833 24.3923 26 24.3923C25.9167 24.3923 25.834 24.3798 25.752 24.3548C25.6698 24.3298 25.5903 24.2955 25.5135 24.252L18 19.4423V29.6923C18 29.7821 18.0288 29.8558 18.0865 29.9135C18.1442 29.9712 18.2179 30 18.3077 30H33.6923C33.7821 30 33.8558 29.9712 33.9135 29.9135C33.9712 29.8558 34 29.7821 34 29.6923V19.4423ZM26 23L33.8463 18H18.1537L26 23ZM18 19.673V18.5298V18.5595V18.5277V19.673Z" fill="#D2D3D3"/>
</svg>
