<svg width="51" height="52" viewBox="0 0 51 52" fill="none" xmlns="http://www.w3.org/2000/svg">
<rect x="0.5" y="0.5" width="50" height="51" rx="4.5" stroke="#9747FF" stroke-dasharray="10 5"/>
<path d="M24.9512 25.066L23.3282 23.4582C23.1897 23.3197 23.0182 23.2489 22.8137 23.2457C22.6092 23.2425 22.4294 23.3185 22.2742 23.4735C22.1294 23.6185 22.0569 23.7941 22.0569 24.0005C22.0569 24.2068 22.1294 24.3825 22.2742 24.5275L24.3184 26.5717C24.4993 26.7524 24.7102 26.8427 24.9512 26.8427C25.1922 26.8427 25.4031 26.7524 25.5839 26.5717L29.7282 22.4275C29.8769 22.2786 29.9502 22.1045 29.9482 21.9052C29.9464 21.7059 29.873 21.5286 29.7282 21.3735C29.573 21.2185 29.3948 21.1384 29.1934 21.1332C28.9923 21.128 28.8141 21.203 28.6589 21.3582L24.9512 25.066ZM22.4109 33.1832L21.0282 30.8582L18.4127 30.2965C18.1884 30.253 18.0092 30.135 17.8752 29.9427C17.7412 29.7504 17.6877 29.542 17.7147 29.3177L17.9704 26.6275L16.1917 24.5927C16.0379 24.4287 15.9609 24.2313 15.9609 24.0005C15.9609 23.7696 16.0379 23.5722 16.1917 23.4082L17.9704 21.3735L17.7147 18.6832C17.6877 18.4589 17.7412 18.2505 17.8752 18.0582C18.0092 17.8659 18.1884 17.748 18.4127 17.7045L21.0282 17.1427L22.4109 14.8177C22.5314 14.6204 22.6955 14.4858 22.9032 14.414C23.1109 14.3421 23.3218 14.353 23.5359 14.4467L26.0012 15.489L28.4664 14.4467C28.6806 14.353 28.8915 14.3421 29.0992 14.414C29.3069 14.4858 29.4709 14.6204 29.5914 14.8177L30.9742 17.1427L33.5897 17.7045C33.814 17.748 33.9932 17.8659 34.1272 18.0582C34.2612 18.2505 34.3147 18.4589 34.2877 18.6832L34.0319 21.3735L35.8107 23.4082C35.9645 23.5722 36.0414 23.7696 36.0414 24.0005C36.0414 24.2313 35.9645 24.4287 35.8107 24.5927L34.0319 26.6275L34.2877 29.3177C34.3147 29.542 34.2612 29.7504 34.1272 29.9427C33.9932 30.135 33.814 30.253 33.5897 30.2965L30.9742 30.8582L29.5914 33.1832C29.4709 33.3805 29.3069 33.5151 29.0992 33.587C28.8915 33.6588 28.6806 33.6479 28.4664 33.5542L26.0012 32.512L23.5359 33.5542C23.3218 33.6479 23.1109 33.6588 22.9032 33.587C22.6955 33.5151 22.5314 33.3805 22.4109 33.1832ZM23.4512 31.9505L26.0012 30.8697L28.5819 31.9505L30.0012 29.5505L32.7512 28.9197L32.5012 26.1005L34.3512 24.0005L32.5012 21.8697L32.7512 19.0505L30.0012 18.4505L28.5512 16.0505L26.0012 17.1312L23.4204 16.0505L22.0012 18.4505L19.2512 19.0505L19.5012 21.8697L17.6512 24.0005L19.5012 26.1005L19.2512 28.9505L22.0012 29.5505L23.4512 31.9505Z" fill="#D2D3D3"/>
</svg>
