<svg width="50" height="52" viewBox="0 0 50 52" fill="none" xmlns="http://www.w3.org/2000/svg">
<rect x="0.5" y="0.5" width="49" height="51" rx="4.5" stroke="#9747FF" stroke-dasharray="10 5"/>
<path d="M25 26.0538L28.073 29.127C28.2115 29.2653 28.3856 29.3362 28.5953 29.3395C28.8048 29.3427 28.982 29.2718 29.127 29.127C29.2718 28.982 29.3443 28.8063 29.3443 28.6C29.3443 28.3937 29.2718 28.218 29.127 28.073L26.0538 25L29.127 21.927C29.2653 21.7885 29.3362 21.6144 29.3395 21.4048C29.3427 21.1953 29.2718 21.018 29.127 20.873C28.982 20.7282 28.8063 20.6557 28.6 20.6557C28.3937 20.6557 28.218 20.7282 28.073 20.873L25 23.9462L21.927 20.873C21.7885 20.7347 21.6144 20.6638 21.4048 20.6605C21.1953 20.6573 21.018 20.7282 20.873 20.873C20.7282 21.018 20.6558 21.1937 20.6558 21.4C20.6558 21.6063 20.7282 21.782 20.873 21.927L23.9462 25L20.873 28.073C20.7347 28.2115 20.6638 28.3856 20.6605 28.5953C20.6573 28.8048 20.7282 28.982 20.873 29.127C21.018 29.2718 21.1937 29.3443 21.4 29.3443C21.6063 29.3443 21.782 29.2718 21.927 29.127L25 26.0538ZM25.0017 34.5C23.6877 34.5 22.4527 34.2507 21.2965 33.752C20.1403 33.2533 19.1347 32.5766 18.2795 31.7218C17.4243 30.8669 16.7472 29.8617 16.2482 28.706C15.7494 27.5503 15.5 26.3156 15.5 25.0017C15.5 23.6877 15.7493 22.4527 16.248 21.2965C16.7467 20.1403 17.4234 19.1347 18.2783 18.2795C19.1331 17.4243 20.1383 16.7472 21.294 16.2482C22.4497 15.7494 23.6844 15.5 24.9983 15.5C26.3123 15.5 27.5473 15.7493 28.7035 16.248C29.8597 16.7467 30.8653 17.4234 31.7205 18.2783C32.5757 19.1331 33.2528 20.1383 33.7518 21.294C34.2506 22.4497 34.5 23.6844 34.5 24.9983C34.5 26.3123 34.2507 27.5473 33.752 28.7035C33.2533 29.8597 32.5766 30.8653 31.7218 31.7205C30.8669 32.5757 29.8617 33.2528 28.706 33.7518C27.5503 34.2506 26.3156 34.5 25.0017 34.5ZM25 33C27.2333 33 29.125 32.225 30.675 30.675C32.225 29.125 33 27.2333 33 25C33 22.7667 32.225 20.875 30.675 19.325C29.125 17.775 27.2333 17 25 17C22.7667 17 20.875 17.775 19.325 19.325C17.775 20.875 17 22.7667 17 25C17 27.2333 17.775 29.125 19.325 30.675C20.875 32.225 22.7667 33 25 33Z" fill="#D2D3D3"/>
</svg>
