<svg width="125" height="40" viewBox="0 0 125 40" fill="none" xmlns="http://www.w3.org/2000/svg">
<rect x="0.5" y="0.5" width="124" height="39" rx="4.5" stroke="#9747FF" stroke-dasharray="10 5"/>
<circle cx="99" cy="20" r="10" fill="#2C41EB"/>
<path d="M99 21C98.7167 21 98.4792 20.9042 98.2875 20.7125C98.0958 20.5208 98 20.2833 98 20C98 19.7167 98.0958 19.4792 98.2875 19.2875C98.4792 19.0958 98.7167 19 99 19C99.2833 19 99.5208 19.0958 99.7125 19.2875C99.9042 19.4792 100 19.7167 100 20C100 20.2833 99.9042 20.5208 99.7125 20.7125C99.5208 20.9042 99.2833 21 99 21ZM99.0017 29.5C97.6877 29.5 96.4527 29.2507 95.2965 28.752C94.1403 28.2533 93.1347 27.5766 92.2795 26.7218C91.4243 25.8669 90.7472 24.8617 90.2482 23.706C89.7494 22.5503 89.5 21.3156 89.5 20.0017C89.5 18.6877 89.7493 17.4527 90.248 16.2965C90.7467 15.1403 91.4234 14.1347 92.2783 13.2795C93.1331 12.4243 94.1383 11.7472 95.294 11.2482C96.4497 10.7494 97.6844 10.5 98.9983 10.5C100.312 10.5 101.547 10.7493 102.704 11.248C103.86 11.7467 104.865 12.4234 105.721 13.2783C106.576 14.1331 107.253 15.1383 107.752 16.294C108.251 17.4497 108.5 18.6844 108.5 19.9983C108.5 21.3123 108.251 22.5473 107.752 23.7035C107.253 24.8597 106.577 25.8653 105.722 26.7205C104.867 27.5757 103.862 28.2528 102.706 28.7518C101.55 29.2506 100.316 29.5 99.0017 29.5ZM99 28C101.233 28 103.125 27.225 104.675 25.675C106.225 24.125 107 22.2333 107 20C107 17.7667 106.225 15.875 104.675 14.325C103.125 12.775 101.233 12 99 12C96.7667 12 94.875 12.775 93.325 14.325C91.775 15.875 91 17.7667 91 20C91 22.2333 91.775 24.125 93.325 25.675C94.875 27.225 96.7667 28 99 28ZM94.848 24.6615L100.464 21.8615C100.551 21.818 100.628 21.7626 100.695 21.6953C100.763 21.6279 100.818 21.5507 100.862 21.4635L103.662 15.848C103.751 15.6813 103.732 15.5339 103.603 15.4057C103.474 15.2776 103.324 15.2552 103.152 15.3385L97.5365 18.1385C97.4493 18.182 97.3721 18.2374 97.3047 18.3047C97.2374 18.3721 97.182 18.4493 97.1385 18.5365L94.3385 24.152C94.2488 24.325 94.2681 24.4756 94.3963 24.6038C94.5244 24.7319 94.675 24.7512 94.848 24.6615Z" fill="#D2D3D3"/>
<circle cx="63" cy="20" r="9" fill="#2C41EB"/>
<path d="M63 21C62.7167 21 62.4792 20.9042 62.2875 20.7125C62.0958 20.5208 62 20.2833 62 20C62 19.7167 62.0958 19.4792 62.2875 19.2875C62.4792 19.0958 62.7167 19 63 19C63.2833 19 63.5208 19.0958 63.7125 19.2875C63.9042 19.4792 64 19.7167 64 20C64 20.2833 63.9042 20.5208 63.7125 20.7125C63.5208 20.9042 63.2833 21 63 21ZM63.0017 29.5C61.6877 29.5 60.4527 29.2507 59.2965 28.752C58.1403 28.2533 57.1347 27.5766 56.2795 26.7218C55.4243 25.8669 54.7472 24.8617 54.2482 23.706C53.7494 22.5503 53.5 21.3156 53.5 20.0017C53.5 18.6877 53.7493 17.4527 54.248 16.2965C54.7467 15.1403 55.4234 14.1347 56.2783 13.2795C57.1331 12.4243 58.1383 11.7472 59.294 11.2482C60.4497 10.7494 61.6844 10.5 62.9983 10.5C64.3123 10.5 65.5473 10.7493 66.7035 11.248C67.8597 11.7467 68.8653 12.4234 69.7205 13.2783C70.5757 14.1331 71.2528 15.1383 71.7518 16.294C72.2506 17.4497 72.5 18.6844 72.5 19.9983C72.5 21.3123 72.2507 22.5473 71.752 23.7035C71.2533 24.8597 70.5766 25.8653 69.7218 26.7205C68.8669 27.5757 67.8617 28.2528 66.706 28.7518C65.5503 29.2506 64.3156 29.5 63.0017 29.5ZM63 28C65.2333 28 67.125 27.225 68.675 25.675C70.225 24.125 71 22.2333 71 20C71 17.7667 70.225 15.875 68.675 14.325C67.125 12.775 65.2333 12 63 12C60.7667 12 58.875 12.775 57.325 14.325C55.775 15.875 55 17.7667 55 20C55 22.2333 55.775 24.125 57.325 25.675C58.875 27.225 60.7667 28 63 28ZM58.848 24.6615L64.4635 21.8615C64.5507 21.818 64.6279 21.7626 64.6953 21.6953C64.7626 21.6279 64.818 21.5507 64.8615 21.4635L67.6615 15.848C67.7512 15.6813 67.7316 15.5339 67.6027 15.4057C67.4739 15.2776 67.3237 15.2552 67.152 15.3385L61.5365 18.1385C61.4493 18.182 61.3721 18.2374 61.3047 18.3047C61.2374 18.3721 61.182 18.4493 61.1385 18.5365L58.3385 24.152C58.2488 24.325 58.2681 24.4756 58.3963 24.6038C58.5244 24.7319 58.675 24.7512 58.848 24.6615Z" fill="#D2D3D3"/>
<path d="M27 21C26.7167 21 26.4792 20.9042 26.2875 20.7125C26.0958 20.5208 26 20.2833 26 20C26 19.7167 26.0958 19.4792 26.2875 19.2875C26.4792 19.0958 26.7167 19 27 19C27.2833 19 27.5208 19.0958 27.7125 19.2875C27.9042 19.4792 28 19.7167 28 20C28 20.2833 27.9042 20.5208 27.7125 20.7125C27.5208 20.9042 27.2833 21 27 21ZM27.0017 29.5C25.6877 29.5 24.4527 29.2507 23.2965 28.752C22.1403 28.2533 21.1347 27.5766 20.2795 26.7218C19.4243 25.8669 18.7472 24.8617 18.2482 23.706C17.7494 22.5503 17.5 21.3156 17.5 20.0017C17.5 18.6877 17.7493 17.4527 18.248 16.2965C18.7467 15.1403 19.4234 14.1347 20.2783 13.2795C21.1331 12.4243 22.1383 11.7472 23.294 11.2482C24.4497 10.7494 25.6844 10.5 26.9983 10.5C28.3123 10.5 29.5473 10.7493 30.7035 11.248C31.8597 11.7467 32.8653 12.4234 33.7205 13.2783C34.5757 14.1331 35.2528 15.1383 35.7518 16.294C36.2506 17.4497 36.5 18.6844 36.5 19.9983C36.5 21.3123 36.2507 22.5473 35.752 23.7035C35.2533 24.8597 34.5766 25.8653 33.7218 26.7205C32.8669 27.5757 31.8617 28.2528 30.706 28.7518C29.5503 29.2506 28.3156 29.5 27.0017 29.5ZM27 28C29.2333 28 31.125 27.225 32.675 25.675C34.225 24.125 35 22.2333 35 20C35 17.7667 34.225 15.875 32.675 14.325C31.125 12.775 29.2333 12 27 12C24.7667 12 22.875 12.775 21.325 14.325C19.775 15.875 19 17.7667 19 20C19 22.2333 19.775 24.125 21.325 25.675C22.875 27.225 24.7667 28 27 28ZM22.848 24.6615L28.4635 21.8615C28.5507 21.818 28.6279 21.7626 28.6953 21.6953C28.7626 21.6279 28.818 21.5507 28.8615 21.4635L31.6615 15.848C31.7512 15.6813 31.7316 15.5339 31.6027 15.4057C31.4739 15.2776 31.3237 15.2552 31.152 15.3385L25.5365 18.1385C25.4493 18.182 25.3721 18.2374 25.3047 18.3047C25.2374 18.3721 25.182 18.4493 25.1385 18.5365L22.3385 24.152C22.2488 24.325 22.2681 24.4756 22.3963 24.6038C22.5244 24.7319 22.675 24.7512 22.848 24.6615Z" fill="#D2D3D3"/>
</svg>
