<svg width="30" height="30" viewBox="0 0 30 30" fill="none" xmlns="http://www.w3.org/2000/svg">
<g clip-path="url(#clip0_897_8282)">
<path d="M10.6053 11.4928L14.952 12.6575C15.1017 12.6976 15.2507 12.6749 15.3991 12.5892C15.5475 12.5035 15.6418 12.3857 15.682 12.2358C15.7221 12.0861 15.6993 11.9371 15.6136 11.7887C15.528 11.6403 15.4103 11.546 15.2605 11.5059L10.9139 10.3412C10.764 10.301 10.6149 10.3238 10.4665 10.4095C10.3181 10.4952 10.2238 10.6129 10.1837 10.7626C10.1435 10.9125 10.1663 11.0616 10.252 11.21C10.3376 11.3584 10.4554 11.4527 10.6053 11.4928ZM11.2026 9.26372L15.5493 10.4284C15.699 10.4685 15.848 10.4457 15.9964 10.3601C16.1448 10.2744 16.2391 10.1567 16.2792 10.007C16.3194 9.85709 16.2966 9.70795 16.2109 9.55955C16.1252 9.41115 16.0075 9.3169 15.8578 9.27678L11.5112 8.11209C11.3613 8.07193 11.2121 8.09469 11.0637 8.18037C10.9153 8.26605 10.8211 8.38383 10.7809 8.53371C10.7408 8.68342 10.7636 8.83248 10.8492 8.98088C10.9349 9.12928 11.0527 9.22356 11.2026 9.26372ZM19.5996 14.7787L20.9434 9.7636L21.7236 9.97266C22.2038 10.1013 22.5691 10.3825 22.8194 10.816C23.0697 11.2496 23.1306 11.7064 23.0019 12.1865L22.992 12.2236L24.7751 12.7014C24.9803 12.7564 25.1338 12.872 25.2355 13.0482C25.3371 13.2243 25.3603 13.415 25.3053 13.6202C25.2503 13.8256 25.1348 13.9791 24.9589 14.0805C24.7828 14.182 24.5921 14.2053 24.3868 14.1503L22.6037 13.6725L22.5938 13.7097C22.4651 14.1898 22.184 14.555 21.7505 14.8053C21.3169 15.0556 20.86 15.1164 20.3798 14.9877L19.5996 14.7787ZM13.9538 17.3475L9.12446 16.0535L9.67697 13.9915L9.28674 13.8869C8.35703 13.6378 7.64988 13.0935 7.16528 12.2542C6.68056 11.4146 6.56275 10.53 6.81186 9.60029L7.27968 7.85437C7.52879 6.92467 8.07313 6.21746 8.91269 5.73274C9.75205 5.24813 10.6366 5.13039 11.5663 5.3795L18.8107 7.32064C19.291 7.44932 19.6562 7.73044 19.9065 8.164C20.1569 8.59756 20.2177 9.05445 20.089 9.53467L18.7452 14.5498C18.6165 15.03 18.3354 15.3953 17.9019 15.6456C17.4683 15.8959 17.0114 15.9567 16.5312 15.828L14.5064 15.2855L13.9538 17.3475ZM7.42864 20.636C7.06497 20.5385 6.78991 20.3283 6.60347 20.0054C6.41703 19.6825 6.37253 19.3392 6.46998 18.9755L6.79849 17.7495C6.89597 17.3857 7.10616 17.1106 7.42904 16.9243C7.75197 16.7379 8.09526 16.6934 8.45893 16.7908L14.1615 18.3188C14.5254 18.4163 14.8004 18.6265 14.9867 18.9494C15.1732 19.2722 15.2177 19.6155 15.1202 19.9793L14.7917 21.2053C14.6942 21.569 14.484 21.844 14.1611 22.0305C13.8384 22.2169 13.4951 22.2614 13.1312 22.164L7.42864 20.636Z" fill="#D2D3D3"/>
</g>
<defs>
<clipPath id="clip0_897_8282">
<rect width="24" height="24" fill="white" transform="translate(6.51562 0.302734) rotate(15)"/>
</clipPath>
</defs>
</svg>
