<svg width="100" height="100" viewBox="0 0 100 100" fill="none" xmlns="http://www.w3.org/2000/svg">
<path d="M25.2677 89.5834C23.4726 89.5834 21.9375 88.9459 20.6625 87.6709C19.3875 86.3959 18.75 84.8608 18.75 83.0657V16.9345C18.75 15.1393 19.3875 13.6042 20.6625 12.3292C21.9375 11.0542 23.4726 10.4167 25.2677 10.4167H57.7375C58.6104 10.4167 59.4542 10.5931 60.2688 10.9459C61.0833 11.2987 61.7896 11.765 62.3875 12.3449L79.3219 29.2793C79.9017 29.8772 80.3681 30.5834 80.7208 31.398C81.0736 32.2126 81.25 33.0563 81.25 33.9292V83.0657C81.25 84.8608 80.6125 86.3959 79.3375 87.6709C78.0625 88.9459 76.5274 89.5834 74.7323 89.5834H25.2677ZM57.8156 30.4376C57.8156 31.3619 58.1274 32.1362 58.751 32.7605C59.3753 33.3848 60.1497 33.697 61.074 33.697H76.0146L57.8156 15.6522V30.4376Z" fill="#5A5C5D"/>
</svg>
