<svg width="52" height="51" viewBox="0 0 52 51" fill="none" xmlns="http://www.w3.org/2000/svg">
<rect x="0.5" y="0.5" width="51" height="50" rx="4.5" stroke="#9747FF" stroke-dasharray="10 5"/>
<path d="M19 32H20.2615L30.498 21.7635L29.2365 20.502L19 30.7385V32ZM18.404 33.5C18.1478 33.5 17.9332 33.4133 17.76 33.24C17.5867 33.0668 17.5 32.8522 17.5 32.596V30.8635C17.5 30.6197 17.5468 30.3873 17.6405 30.1663C17.734 29.9453 17.8628 29.7527 18.027 29.5885L30.6905 16.9307C30.8417 16.7934 31.0086 16.6873 31.1913 16.6125C31.3741 16.5375 31.5658 16.5 31.7663 16.5C31.9668 16.5 32.1609 16.5356 32.3488 16.6068C32.5368 16.6779 32.7032 16.7911 32.848 16.9462L34.0693 18.1827C34.2244 18.3276 34.335 18.4942 34.401 18.6827C34.467 18.8712 34.5 19.0597 34.5 19.2482C34.5 19.4494 34.4657 19.6413 34.397 19.824C34.3283 20.0068 34.2191 20.1738 34.0693 20.325L21.4115 32.973C21.2473 33.1372 21.0548 33.266 20.8338 33.3595C20.6128 33.4532 20.3803 33.5 20.1365 33.5H18.404ZM29.8562 21.1438L29.2365 20.502L30.498 21.7635L29.8562 21.1438Z" fill="#D2D3D3"/>
</svg>
