<svg width="56" height="53" viewBox="0 0 56 53" fill="none" xmlns="http://www.w3.org/2000/svg">
<rect x="0.5" y="0.5" width="55" height="52" rx="4.5" stroke="#9747FF" stroke-dasharray="10 5"/>
<path d="M22.023 30.2923C22.873 29.6616 23.799 29.1635 24.801 28.798C25.8028 28.4327 26.8692 28.25 28 28.25C29.1308 28.25 30.1972 28.4327 31.199 28.798C32.201 29.1635 33.127 29.6616 33.977 30.2923C34.5987 29.6089 35.0912 28.8179 35.4548 27.9192C35.8183 27.0206 36 26.0475 36 25C36 22.7833 35.2208 20.8958 33.6625 19.3375C32.1042 17.7792 30.2167 17 28 17C25.7833 17 23.8958 17.7792 22.3375 19.3375C20.7792 20.8958 20 22.7833 20 25C20 26.0475 20.1817 27.0206 20.5452 27.9192C20.9088 28.8179 21.4013 29.6089 22.023 30.2923ZM28.0003 25.75C27.0873 25.75 26.3173 25.4367 25.6905 24.81C25.0635 24.1832 24.75 23.4133 24.75 22.5003C24.75 21.5873 25.0633 20.8173 25.69 20.1905C26.3168 19.5635 27.0868 19.25 27.9998 19.25C28.9128 19.25 29.6827 19.5633 30.3095 20.19C30.9365 20.8168 31.25 21.5868 31.25 22.4997C31.25 23.4127 30.9367 24.1827 30.31 24.8095C29.6832 25.4365 28.9132 25.75 28.0003 25.75ZM28 34.5C26.6808 34.5 25.4433 34.2519 24.2875 33.7558C23.1317 33.2596 22.1263 32.5839 21.2713 31.7288C20.4161 30.8738 19.7404 29.8683 19.2443 28.7125C18.7481 27.5567 18.5 26.3192 18.5 25C18.5 23.6808 18.7481 22.4433 19.2443 21.2875C19.7404 20.1317 20.4161 19.1262 21.2713 18.2712C22.1263 17.4161 23.1317 16.7404 24.2875 16.2443C25.4433 15.7481 26.6808 15.5 28 15.5C29.3192 15.5 30.5567 15.7481 31.7125 16.2443C32.8683 16.7404 33.8738 17.4161 34.7288 18.2712C35.5839 19.1262 36.2596 20.1317 36.7558 21.2875C37.2519 22.4433 37.5 23.6808 37.5 25C37.5 26.3192 37.2519 27.5567 36.7558 28.7125C36.2596 29.8683 35.5839 30.8738 34.7288 31.7288C33.8738 32.5839 32.8683 33.2596 31.7125 33.7558C30.5567 34.2519 29.3192 34.5 28 34.5ZM28 33C28.9025 33 29.7727 32.8548 30.6105 32.5645C31.4483 32.274 32.1923 31.8679 32.8422 31.3462C32.1923 30.8436 31.458 30.4519 30.6395 30.1712C29.8208 29.8904 28.941 29.75 28 29.75C27.059 29.75 26.1776 29.8888 25.3558 30.1663C24.5339 30.4439 23.8012 30.8372 23.1578 31.3462C23.8078 31.8679 24.5517 32.274 25.3895 32.5645C26.2273 32.8548 27.0975 33 28 33ZM28 24.25C28.4975 24.25 28.9135 24.0827 29.248 23.748C29.5827 23.4135 29.75 22.9975 29.75 22.5C29.75 22.0025 29.5827 21.5865 29.248 21.252C28.9135 20.9173 28.4975 20.75 28 20.75C27.5025 20.75 27.0865 20.9173 26.752 21.252C26.4173 21.5865 26.25 22.0025 26.25 22.5C26.25 22.9975 26.4173 23.4135 26.752 23.748C27.0865 24.0827 27.5025 24.25 28 24.25Z" fill="#D2D3D3"/>
</svg>
