<svg width="30" height="30" viewBox="0 0 30 30" fill="none" xmlns="http://www.w3.org/2000/svg">
<path d="M18.0643 24.7282L13.6175 16.9826C13.2374 17.0387 12.8608 17.0597 12.4878 17.0453C12.1146 17.0309 11.7305 16.9708 11.3355 16.8649C9.79369 16.4518 8.62737 15.5602 7.83651 14.1902C7.04546 12.8203 6.85648 11.3644 7.2696 9.82263C7.40333 9.32357 7.59467 8.8635 7.84364 8.44242C8.09244 8.0213 8.38897 7.63652 8.73321 7.28808L11.2782 11.6693L13.9068 10.1517L11.3989 5.78065C11.8727 5.65671 12.3519 5.58832 12.8365 5.57549C13.321 5.56262 13.8128 5.62304 14.3119 5.75676C15.8537 6.16988 17.0201 7.06148 17.8111 8.43156C18.602 9.80144 18.7909 11.2573 18.3777 12.799C18.2686 13.2065 18.1285 13.5757 17.9575 13.9068C17.7864 14.238 17.5801 14.5471 17.3386 14.8342L21.8233 22.5581C21.9466 22.7716 21.9757 22.9997 21.9107 23.2423C21.8457 23.4851 21.7064 23.6681 21.4929 23.7914L19.2743 25.0723C19.0606 25.1955 18.8363 25.2224 18.6015 25.1529C18.3667 25.0833 18.1876 24.9417 18.0643 24.7282Z" fill="#D2D3D3"/>
</svg>
