<svg width="60" height="54" viewBox="0 0 60 54" fill="none" xmlns="http://www.w3.org/2000/svg">
<rect x="0.5" y="0.5" width="59" height="53" rx="4.5" stroke="#9747FF" stroke-dasharray="10 5"/>
<path d="M27.5215 30.6153C25.8138 30.6153 24.3677 30.023 23.183 28.8385C21.9985 27.6538 21.4062 26.2077 21.4062 24.5C21.4062 22.7923 21.9985 21.3462 23.183 20.1615C24.3677 18.977 25.8138 18.3848 27.5215 18.3848C29.2292 18.3848 30.6753 18.977 31.86 20.1615C33.0445 21.3462 33.6367 22.7923 33.6367 24.5C33.6367 25.2142 33.5169 25.8963 33.2772 26.5463C33.0374 27.1963 32.7175 27.7616 32.3175 28.2423L38.0715 33.9963C38.21 34.1346 38.2808 34.3086 38.284 34.5183C38.2872 34.7279 38.2163 34.9052 38.0715 35.05C37.9267 35.1948 37.751 35.2673 37.5445 35.2673C37.3382 35.2673 37.1626 35.1948 37.0177 35.05L31.2638 29.296C30.7638 29.7088 30.1887 30.0319 29.5387 30.2653C28.8887 30.4986 28.2163 30.6153 27.5215 30.6153ZM27.5215 29.1155C28.81 29.1155 29.9013 28.6683 30.7955 27.774C31.6898 26.8798 32.137 25.7885 32.137 24.5C32.137 23.2115 31.6898 22.1202 30.7955 21.226C29.9013 20.3317 28.81 19.8845 27.5215 19.8845C26.233 19.8845 25.1417 20.3317 24.2475 21.226C23.3532 22.1202 22.906 23.2115 22.906 24.5C22.906 25.7885 23.3532 26.8798 24.2475 27.774C25.1417 28.6683 26.233 29.1155 27.5215 29.1155Z" fill="#D2D3D3"/>
</svg>
