<svg width="40" height="40" viewBox="0 0 40 40" fill="none" xmlns="http://www.w3.org/2000/svg">
<path d="M8.84495 34.1666C8.003 34.1666 7.29036 33.8749 6.70703 33.2916C6.1237 32.7083 5.83203 31.9956 5.83203 31.1537V8.84617C5.83203 8.00422 6.1237 7.29159 6.70703 6.70825C7.29036 6.12492 8.003 5.83325 8.84495 5.83325H31.1525C31.9944 5.83325 32.707 6.12492 33.2904 6.70825C33.8737 7.29159 34.1654 8.00422 34.1654 8.84617V31.1537C34.1654 31.9956 33.8737 32.7083 33.2904 33.2916C32.707 33.8749 31.9944 34.1666 31.1525 34.1666H8.84495ZM8.84495 31.6666H31.1525C31.2808 31.6666 31.3983 31.6131 31.505 31.5062C31.6119 31.3995 31.6654 31.282 31.6654 31.1537V8.84617C31.6654 8.71784 31.6119 8.60033 31.505 8.49367C31.3983 8.38672 31.2808 8.33325 31.1525 8.33325H8.84495C8.71661 8.33325 8.59912 8.38672 8.49245 8.49367C8.3855 8.60033 8.33203 8.71784 8.33203 8.84617V31.1537C8.33203 31.282 8.3855 31.3995 8.49245 31.5062C8.59912 31.6131 8.71661 31.6666 8.84495 31.6666ZM12.7554 27.9166H27.3704C27.6718 27.9166 27.8951 27.7798 28.0404 27.5062C28.1856 27.2328 28.1631 26.968 27.9729 26.7116L23.9987 21.3878C23.8426 21.187 23.6418 21.0866 23.3962 21.0866C23.1504 21.0866 22.9495 21.187 22.7937 21.3878L18.7166 26.6987L15.9858 23.1987C15.8299 23.0084 15.6318 22.9133 15.3912 22.9133C15.1509 22.9133 14.9527 23.0138 14.7966 23.2149L12.1687 26.7116C11.9679 26.968 11.9401 27.2328 12.0854 27.5062C12.2306 27.7798 12.454 27.9166 12.7554 27.9166Z" fill="#B4B5B5"/>
</svg>
