<svg width="90" height="48" viewBox="0 0 90 48" fill="none" xmlns="http://www.w3.org/2000/svg">
<rect x="0.5" y="0.5" width="89" height="47" rx="4.5" stroke="#9747FF" stroke-dasharray="10 5"/>
<path d="M24.5178 26.174L21.3666 23.023C21.3232 22.9795 21.2891 22.9309 21.2641 22.8773C21.2391 22.8238 21.2266 22.7663 21.2266 22.705C21.2266 22.5825 21.268 22.476 21.3508 22.3855C21.4336 22.2952 21.5428 22.25 21.6783 22.25H28.3168C28.4523 22.25 28.5615 22.2957 28.6443 22.387C28.7271 22.4782 28.7686 22.5846 28.7686 22.7063C28.7686 22.7368 28.7218 22.8423 28.6283 23.023L25.4773 26.174C25.405 26.2465 25.3301 26.2994 25.2528 26.3327C25.1755 26.3661 25.0904 26.3828 24.9976 26.3828C24.9047 26.3828 24.8196 26.3661 24.7423 26.3327C24.665 26.2994 24.5901 26.2465 24.5178 26.174Z" fill="#D2D3D3"/>
<path d="M61.6783 25.7499C61.5428 25.7499 61.4336 25.7043 61.3508 25.6129C61.268 25.5218 61.2266 25.4154 61.2266 25.2937C61.2266 25.2632 61.2733 25.1576 61.3668 24.9769L64.5178 21.8259C64.5901 21.7534 64.665 21.7005 64.7423 21.6672C64.8196 21.6339 64.9047 21.6172 64.9976 21.6172C65.0904 21.6172 65.1755 21.6339 65.2528 21.6672C65.3301 21.7005 65.405 21.7534 65.4773 21.8259L68.6286 24.9769C68.6719 25.0204 68.7061 25.069 68.7311 25.1227C68.7561 25.1762 68.7686 25.2336 68.7686 25.2949C68.7686 25.4174 68.7271 25.5239 68.6443 25.6144C68.5615 25.7048 68.4523 25.7499 68.3168 25.7499H61.6783Z" fill="#D2D3D3"/>
</svg>
