<svg width="96" height="49" viewBox="0 0 96 49" fill="none" xmlns="http://www.w3.org/2000/svg">
<rect x="0.5" y="0.5" width="95" height="48" rx="4.5" stroke="#9747FF" stroke-dasharray="10 5"/>
<path d="M29 29.5C30.2487 29.5 31.3108 29.0622 32.1865 28.1865C33.0622 27.3108 33.5 26.2487 33.5 25C33.5 23.7513 33.0622 22.6892 32.1865 21.8135C31.3108 20.9378 30.2487 20.5 29 20.5C27.7513 20.5 26.6892 20.9378 25.8135 21.8135C24.9378 22.6892 24.5 23.7513 24.5 25C24.5 26.2487 24.9378 27.3108 25.8135 28.1865C26.6892 29.0622 27.7513 29.5 29 29.5ZM29.0018 34.5C27.6878 34.5 26.4527 34.2507 25.2965 33.752C24.1403 33.2533 23.1347 32.5766 22.2795 31.7218C21.4243 30.8669 20.7472 29.8617 20.2482 28.706C19.7494 27.5503 19.5 26.3156 19.5 25.0018C19.5 23.6878 19.7493 22.4527 20.248 21.2965C20.7467 20.1403 21.4234 19.1347 22.2783 18.2795C23.1331 17.4243 24.1383 16.7472 25.294 16.2482C26.4497 15.7494 27.6844 15.5 28.9982 15.5C30.3123 15.5 31.5473 15.7493 32.7035 16.248C33.8597 16.7467 34.8653 17.4234 35.7205 18.2783C36.5757 19.1331 37.2528 20.1383 37.7518 21.294C38.2506 22.4497 38.5 23.6844 38.5 24.9982C38.5 26.3123 38.2507 27.5473 37.752 28.7035C37.2533 29.8597 36.5766 30.8653 35.7218 31.7205C34.8669 32.5757 33.8617 33.2528 32.706 33.7518C31.5503 34.2506 30.3156 34.5 29.0018 34.5ZM29 33C31.2333 33 33.125 32.225 34.675 30.675C36.225 29.125 37 27.2333 37 25C37 22.7667 36.225 20.875 34.675 19.325C33.125 17.775 31.2333 17 29 17C26.7667 17 24.875 17.775 23.325 19.325C21.775 20.875 21 22.7667 21 25C21 27.2333 21.775 29.125 23.325 30.675C24.875 32.225 26.7667 33 29 33Z" fill="#D2D3D3"/>
<path d="M68.0018 34.5C66.6878 34.5 65.4527 34.2507 64.2965 33.752C63.1403 33.2533 62.1347 32.5766 61.2795 31.7218C60.4243 30.8669 59.7472 29.8617 59.2482 28.706C58.7494 27.5503 58.5 26.3156 58.5 25.0018C58.5 23.6878 58.7493 22.4527 59.248 21.2965C59.7467 20.1403 60.4234 19.1347 61.2783 18.2795C62.1331 17.4243 63.1383 16.7472 64.294 16.2482C65.4497 15.7494 66.6844 15.5 67.9982 15.5C69.3123 15.5 70.5473 15.7493 71.7035 16.248C72.8597 16.7467 73.8653 17.4234 74.7205 18.2783C75.5757 19.1331 76.2528 20.1383 76.7518 21.294C77.2506 22.4497 77.5 23.6844 77.5 24.9982C77.5 26.3123 77.2507 27.5473 76.752 28.7035C76.2533 29.8597 75.5766 30.8653 74.7218 31.7205C73.8669 32.5757 72.8617 33.2528 71.706 33.7518C70.5503 34.2506 69.3156 34.5 68.0018 34.5ZM68 33C70.2333 33 72.125 32.225 73.675 30.675C75.225 29.125 76 27.2333 76 25C76 22.7667 75.225 20.875 73.675 19.325C72.125 17.775 70.2333 17 68 17C65.7667 17 63.875 17.775 62.325 19.325C60.775 20.875 60 22.7667 60 25C60 27.2333 60.775 29.125 62.325 30.675C63.875 32.225 65.7667 33 68 33Z" fill="#D2D3D3"/>
</svg>
