<svg width="30" height="30" viewBox="0 0 30 30" fill="none" xmlns="http://www.w3.org/2000/svg">
<path d="M13.2665 25.7676C12.8497 25.3019 12.4437 24.6349 12.0483 23.7667C11.6531 22.8984 11.3286 21.9905 11.0747 21.0431C10.6875 19.5981 10.5219 18.3332 10.5777 17.2484C10.6333 16.1637 10.8512 15.2333 11.2313 14.4572L10.1015 10.2407L11.5582 5.05208L11.8555 4.97243L13.0664 9.49176C12.927 9.61539 12.836 9.7589 12.7935 9.9223C12.751 10.0857 12.7527 10.2528 12.7985 10.4236C12.8668 10.6788 13.0121 10.8692 13.2341 10.9948C13.4562 11.1204 13.6948 11.1491 13.95 11.0807C14.2052 11.0123 14.3975 10.8682 14.527 10.6484C14.6565 10.4285 14.6871 10.191 14.6187 9.93587C14.573 9.76506 14.4908 9.61952 14.3723 9.49926C14.2538 9.379 14.1033 9.30019 13.9208 9.26283L12.7098 4.74351L13.0071 4.66386L16.8629 8.42893L17.9927 12.6454C18.7261 13.1233 19.384 13.819 19.9665 14.7327C20.5491 15.6464 21.0341 16.8257 21.4213 18.2707C21.6735 19.212 21.8475 20.1586 21.9433 21.1104C22.039 22.0622 22.0228 22.844 21.8946 23.4557C21.2558 23.4291 20.7079 23.201 20.2509 22.7712C19.794 22.3415 19.4864 21.8114 19.3281 21.1809C19.222 20.7847 19.1514 20.3444 19.1165 19.8599C19.0817 19.3756 19.0042 18.9093 18.884 18.4609C18.6338 17.5272 18.1439 16.6573 17.4143 15.8514C16.6847 15.0454 15.7672 14.3406 14.6618 13.737C14.0194 14.8222 13.5797 15.8907 13.3427 16.9424C13.1055 17.9941 13.1086 18.9744 13.3522 19.8834C13.479 20.3565 13.6536 20.8151 13.8761 21.2592C14.0986 21.7032 14.2688 22.1251 14.3866 22.5249C14.5532 23.1466 14.5434 23.7578 14.3572 24.3585C14.1711 24.9591 13.8076 25.4288 13.2665 25.7676Z" fill="#D2D3D3"/>
</svg>
