<svg width="24" height="24" viewBox="0 0 24 24" fill="none" xmlns="http://www.w3.org/2000/svg">
<path d="M4.30775 19.5C3.80258 19.5 3.375 19.325 3.025 18.975C2.675 18.625 2.5 18.1974 2.5 17.6923V6.30775C2.5 5.80258 2.675 5.375 3.025 5.025C3.375 4.675 3.802 4.5 4.306 4.5H9.048C9.29233 4.5 9.52525 4.54683 9.74675 4.6405C9.96808 4.734 10.1608 4.86283 10.325 5.027L11.798 6.5H19.6923C20.1974 6.5 20.625 6.675 20.975 7.025C21.325 7.375 21.5 7.80258 21.5 8.30775V17.6923C21.5 18.1974 21.325 18.625 20.975 18.975C20.625 19.325 20.1974 19.5 19.6923 19.5H4.30775ZM7 15.75H13C13.2125 15.75 13.3906 15.6781 13.5343 15.5343C13.6781 15.3904 13.75 15.2122 13.75 14.9997C13.75 14.7871 13.6781 14.609 13.5343 14.4655C13.3906 14.3218 13.2125 14.25 13 14.25H7C6.7875 14.25 6.60942 14.3219 6.46575 14.4658C6.32192 14.6096 6.25 14.7878 6.25 15.0003C6.25 15.2129 6.32192 15.391 6.46575 15.5345C6.60942 15.6782 6.7875 15.75 7 15.75ZM7 11.75H17C17.2125 11.75 17.3906 11.6781 17.5343 11.5342C17.6781 11.3904 17.75 11.2122 17.75 10.9997C17.75 10.7871 17.6781 10.609 17.5343 10.4655C17.3906 10.3218 17.2125 10.25 17 10.25H7C6.7875 10.25 6.60942 10.3219 6.46575 10.4658C6.32192 10.6096 6.25 10.7878 6.25 11.0003C6.25 11.2129 6.32192 11.391 6.46575 11.5345C6.60942 11.6782 6.7875 11.75 7 11.75Z" fill="#D2D3D3"/>
</svg>
