<svg width="152" height="64" viewBox="0 0 152 64" fill="none" xmlns="http://www.w3.org/2000/svg">
<rect x="0.5" y="0.5" width="151" height="63" rx="4.5" stroke="#9747FF" stroke-dasharray="10 5"/>
<path d="M123 37.4615L119.031 39.1652C118.428 39.4229 117.856 39.3736 117.313 39.0173C116.771 38.6609 116.5 38.1597 116.5 37.5135V25.3077C116.5 24.8026 116.675 24.375 117.025 24.025C117.375 23.675 117.803 23.5 118.308 23.5H127.692C128.197 23.5 128.625 23.675 128.975 24.025C129.325 24.375 129.5 24.8026 129.5 25.3077V37.5135C129.5 38.1597 129.229 38.6609 128.687 39.0173C128.144 39.3736 127.572 39.4229 126.969 39.1652L123 37.4615ZM123 35.8L127.567 37.7673C127.67 37.8121 127.768 37.8025 127.86 37.7385C127.953 37.6743 128 37.5878 128 37.4788V25.3077C128 25.2307 127.968 25.1602 127.904 25.0962C127.84 25.0321 127.769 25 127.692 25H118.308C118.231 25 118.16 25.0321 118.096 25.0962C118.032 25.1602 118 25.2307 118 25.3077V37.4788C118 37.5878 118.046 37.6743 118.139 37.7385C118.232 37.8025 118.33 37.8121 118.433 37.7673L123 35.8ZM123 25H118H128H123Z" fill="#D2D3D3"/>
<path d="M78 37.4615L74.0308 39.1652C73.4283 39.4229 72.8558 39.3743 72.3135 39.0195C71.7712 38.6647 71.5 38.1627 71.5 37.5135V25.3077C71.5 24.8026 71.675 24.375 72.025 24.025C72.375 23.675 72.8026 23.5 73.3077 23.5H78.25C78.4625 23.5 78.6407 23.5719 78.7845 23.7158C78.9282 23.8596 79 24.0378 79 24.2503C79 24.4629 78.9282 24.641 78.7845 24.7845C78.6407 24.9282 78.4625 25 78.25 25H73.3077C73.2307 25 73.1603 25.0321 73.0963 25.0962C73.0321 25.1602 73 25.2307 73 25.3077V37.4788C73 37.5878 73.0465 37.6743 73.1395 37.7385C73.2323 37.8025 73.3301 37.8121 73.4327 37.7673L78 35.8L82.5673 37.7673C82.6699 37.8121 82.7677 37.8025 82.8605 37.7385C82.9535 37.6743 83 37.5878 83 37.4788V31.75C83 31.5375 83.0719 31.3593 83.2158 31.2155C83.3596 31.0718 83.5378 31 83.7503 31C83.9629 31 84.141 31.0718 84.2845 31.2155C84.4282 31.3593 84.5 31.5375 84.5 31.75V37.5135C84.5 38.1627 84.2288 38.6647 83.6865 39.0195C83.1442 39.3743 82.5718 39.4229 81.9693 39.1652L78 37.4615ZM78 25H73H79H78ZM83 27H81.75C81.5375 27 81.3593 26.9281 81.2155 26.7842C81.0718 26.6404 81 26.4622 81 26.2497C81 26.0371 81.0718 25.859 81.2155 25.7155C81.3593 25.5718 81.5375 25.5 81.75 25.5H83V24.25C83 24.0375 83.0719 23.8594 83.2158 23.7158C83.3596 23.5719 83.5378 23.5 83.7503 23.5C83.9629 23.5 84.141 23.5719 84.2845 23.7158C84.4282 23.8594 84.5 24.0375 84.5 24.25V25.5H85.75C85.9625 25.5 86.1406 25.5719 86.2843 25.7158C86.4281 25.8596 86.5 26.0378 86.5 26.2503C86.5 26.4629 86.4281 26.641 86.2843 26.7845C86.1406 26.9282 85.9625 27 85.75 27H84.5V28.25C84.5 28.4625 84.4281 28.6407 84.2843 28.7845C84.1404 28.9282 83.9622 29 83.7497 29C83.5371 29 83.359 28.9282 83.2155 28.7845C83.0718 28.6407 83 28.4625 83 28.25V27Z" fill="#D2D3D3"/>
<path d="M31.077 38.673L26.8155 40.8328C26.5142 40.9866 26.2196 40.9773 25.9318 40.8048C25.6439 40.6323 25.5 40.3736 25.5 40.0288V28.2308C25.5 27.7321 25.6766 27.3062 26.0298 26.953C26.3831 26.5997 26.8091 26.423 27.3077 26.423H34.8365C35.3352 26.423 35.7612 26.5997 36.1145 26.953C36.4677 27.3062 36.6443 27.7321 36.6443 28.2308V40.0288C36.6443 40.3736 36.5003 40.6323 36.2125 40.8048C35.9247 40.9773 35.6301 40.9866 35.3288 40.8328L31.077 38.673ZM27 39.1865L30.223 37.4693C30.491 37.3218 30.774 37.248 31.072 37.248C31.3702 37.248 31.6533 37.3218 31.9213 37.4693L35.1443 39.1865V28.2308C35.1443 28.1411 35.1154 28.0673 35.0578 28.0095C35.0001 27.9518 34.9263 27.923 34.8365 27.923H27.3077C27.2179 27.923 27.1442 27.9518 27.0865 28.0095C27.0288 28.0673 27 28.1411 27 28.2308V39.1865ZM39.75 37.7213C39.5372 37.7213 39.359 37.6494 39.2155 37.5058C39.0718 37.3621 39 37.1839 39 36.9713V24.3078C39 24.2179 38.9712 24.1442 38.9135 24.0865C38.8558 24.0288 38.7821 24 38.6923 24H29.1442C28.9314 24 28.7533 23.9282 28.6098 23.7845C28.4661 23.641 28.3942 23.4628 28.3942 23.25C28.3942 23.0372 28.4661 22.859 28.6098 22.7155C28.7533 22.5718 28.9314 22.5 29.1442 22.5H38.6923C39.1909 22.5 39.6169 22.6766 39.9703 23.0298C40.3234 23.3831 40.5 23.8091 40.5 24.3078V36.9713C40.5 37.1839 40.4282 37.3621 40.2845 37.5058C40.141 37.6494 39.9628 37.7213 39.75 37.7213Z" fill="#D2D3D3"/>
</svg>
