<svg width="84" height="54" viewBox="0 0 84 54" fill="none" xmlns="http://www.w3.org/2000/svg">
<rect x="0.5" y="0.5" width="83" height="53" rx="4.5" stroke="#9747FF" stroke-dasharray="10 5"/>
<path d="M54.0578 32.5C53.5526 32.5 53.125 32.325 52.775 31.975C52.425 31.625 52.25 31.1974 52.25 30.6923V19.3077C52.25 18.8026 52.425 18.375 52.775 18.025C53.125 17.675 53.5526 17.5 54.0578 17.5H62.4423C62.9474 17.5 63.375 17.675 63.725 18.025C64.075 18.375 64.25 18.8026 64.25 19.3077V30.6923C64.25 31.1974 64.075 31.625 63.725 31.975C63.375 32.325 62.9474 32.5 62.4423 32.5H54.0578ZM54.0578 31H62.4423C62.5193 31 62.5898 30.9679 62.6538 30.9038C62.7179 30.8398 62.75 30.7693 62.75 30.6923V19.3077C62.75 19.2307 62.7179 19.1602 62.6538 19.0962C62.5898 19.0321 62.5193 19 62.4423 19H54.0578C53.9808 19 53.9103 19.0321 53.8463 19.0962C53.7821 19.1602 53.75 19.2307 53.75 19.3077V30.6923C53.75 30.7693 53.7821 30.8398 53.8463 30.9038C53.9103 30.9679 53.9808 31 54.0578 31ZM50.5577 36C50.0526 36 49.625 35.825 49.275 35.475C48.925 35.125 48.75 34.6974 48.75 34.1923V22.0578C48.75 21.8449 48.8218 21.6667 48.9655 21.523C49.109 21.3795 49.2872 21.3077 49.5 21.3077C49.7128 21.3077 49.8911 21.3795 50.0348 21.523C50.1783 21.6667 50.25 21.8449 50.25 22.0578V34.1923C50.25 34.2693 50.2821 34.3398 50.3463 34.4038C50.4103 34.4679 50.4807 34.5 50.5577 34.5H59.6923C59.9051 34.5 60.0833 34.5717 60.227 34.7152C60.3705 34.8589 60.4423 35.0372 60.4423 35.25C60.4423 35.4628 60.3705 35.641 60.227 35.7845C60.0833 35.9282 59.9051 36 59.6923 36H50.5577Z" fill="#D2D3D3"/>
<path d="M21.0578 32.5C20.5526 32.5 20.125 32.325 19.775 31.975C19.425 31.625 19.25 31.1974 19.25 30.6923V19.3077C19.25 18.8026 19.425 18.375 19.775 18.025C20.125 17.675 20.5526 17.5 21.0578 17.5H29.4423C29.9474 17.5 30.375 17.675 30.725 18.025C31.075 18.375 31.25 18.8026 31.25 19.3077V30.6923C31.25 31.1974 31.075 31.625 30.725 31.975C30.375 32.325 29.9474 32.5 29.4423 32.5H21.0578ZM17.5577 36C17.0526 36 16.625 35.825 16.275 35.475C15.925 35.125 15.75 34.6974 15.75 34.1923V22.0578C15.75 21.8449 15.8218 21.6667 15.9655 21.523C16.109 21.3795 16.2872 21.3077 16.5 21.3077C16.7128 21.3077 16.8911 21.3795 17.0348 21.523C17.1783 21.6667 17.25 21.8449 17.25 22.0578V34.1923C17.25 34.2693 17.2821 34.3398 17.3463 34.4038C17.4103 34.4679 17.4807 34.5 17.5577 34.5H26.6923C26.9051 34.5 27.0833 34.5717 27.227 34.7152C27.3705 34.8589 27.4423 35.0372 27.4423 35.25C27.4423 35.4628 27.3705 35.641 27.227 35.7845C27.0833 35.9282 26.9051 36 26.6923 36H17.5577Z" fill="#D2D3D3"/>
</svg>
