<svg width="54" height="51" viewBox="0 0 54 51" fill="none" xmlns="http://www.w3.org/2000/svg">
<rect x="0.5" y="0.5" width="53" height="50" rx="4.5" stroke="#9747FF" stroke-dasharray="10 5"/>
<path d="M18.3077 33.5C17.8026 33.5 17.375 33.325 17.025 32.975C16.675 32.625 16.5 32.1974 16.5 31.6923V20.3078C16.5 19.8026 16.675 19.375 17.025 19.025C17.375 18.675 17.8026 18.5 18.3077 18.5H21.3615L22.6693 17.0828C22.8346 16.9034 23.0338 16.7615 23.267 16.657C23.5 16.5523 23.7443 16.5 24 16.5H28.0577C28.2703 16.5 28.4483 16.5719 28.592 16.7158C28.7358 16.8596 28.8077 17.0378 28.8077 17.2503C28.8077 17.4629 28.7358 17.641 28.592 17.7845C28.4483 17.9282 28.2703 18 28.0577 18H23.8655L22.0308 20H18.3077C18.2179 20 18.1442 20.0288 18.0865 20.0865C18.0288 20.1442 18 20.2179 18 20.3078V31.6923C18 31.7821 18.0288 31.8558 18.0865 31.9135C18.1442 31.9712 18.2179 32 18.3077 32H33.6923C33.7821 32 33.8558 31.9712 33.9135 31.9135C33.9712 31.8558 34 31.7821 34 31.6923V23.9423C34 23.7298 34.0719 23.5517 34.2157 23.408C34.3596 23.2642 34.5378 23.1923 34.7502 23.1923C34.9629 23.1923 35.141 23.2642 35.2845 23.408C35.4282 23.5517 35.5 23.7298 35.5 23.9423V31.6923C35.5 32.1974 35.325 32.625 34.975 32.975C34.625 33.325 34.1974 33.5 33.6923 33.5H18.3077ZM34 18H32.75C32.5375 18 32.3593 17.9281 32.2155 17.7843C32.0718 17.6404 32 17.4622 32 17.2497C32 17.0371 32.0718 16.859 32.2155 16.7155C32.3593 16.5718 32.5375 16.5 32.75 16.5H34V15.25C34 15.0375 34.0719 14.8594 34.2157 14.7158C34.3596 14.5719 34.5378 14.5 34.7502 14.5C34.9629 14.5 35.141 14.5719 35.2845 14.7158C35.4282 14.8594 35.5 15.0375 35.5 15.25V16.5H36.75C36.9625 16.5 37.1406 16.5719 37.2843 16.7158C37.4281 16.8596 37.5 17.0378 37.5 17.2503C37.5 17.4629 37.4281 17.641 37.2843 17.7845C37.1406 17.9282 36.9625 18 36.75 18H35.5V19.25C35.5 19.4625 35.4281 19.6407 35.2843 19.7845C35.1404 19.9282 34.9622 20 34.7498 20C34.5371 20 34.359 19.9282 34.2155 19.7845C34.0718 19.6407 34 19.4625 34 19.25V18ZM26 30.1152C27.1475 30.1152 28.1202 29.7162 28.9183 28.9183C29.7162 28.1202 30.1152 27.1475 30.1152 26C30.1152 24.8525 29.7162 23.8798 28.9183 23.0818C28.1202 22.2838 27.1475 21.8848 26 21.8848C24.8525 21.8848 23.8797 22.2838 23.0817 23.0818C22.2837 23.8798 21.8848 24.8525 21.8848 26C21.8848 27.1475 22.2837 28.1202 23.0817 28.9183C23.8797 29.7162 24.8525 30.1152 26 30.1152ZM26 28.6155C25.2615 28.6155 24.641 28.3642 24.1385 27.8615C23.6358 27.359 23.3845 26.7385 23.3845 26C23.3845 25.2615 23.6358 24.641 24.1385 24.1385C24.641 23.6358 25.2615 23.3845 26 23.3845C26.7385 23.3845 27.359 23.6358 27.8615 24.1385C28.3642 24.641 28.6155 25.2615 28.6155 26C28.6155 26.7385 28.3642 27.359 27.8615 27.8615C27.359 28.3642 26.7385 28.6155 26 28.6155Z" fill="#D2D3D3"/>
</svg>
