<svg width="81" height="50" viewBox="0 0 81 50" fill="none" xmlns="http://www.w3.org/2000/svg">
<rect x="0.5" y="0.5" width="80" height="49" rx="4.5" stroke="#9747FF" stroke-dasharray="10 5"/>
<path d="M57.9467 24.9995L53.8735 20.9265C53.7352 20.788 53.6643 20.6139 53.661 20.4043C53.6578 20.1948 53.7287 20.0175 53.8735 19.8725C54.0185 19.7277 54.1942 19.6553 54.4005 19.6553C54.6068 19.6553 54.7825 19.7277 54.9275 19.8725L59.4217 24.3668C59.5152 24.4604 59.5813 24.5592 59.6198 24.663C59.6583 24.7669 59.6775 24.879 59.6775 24.9995C59.6775 25.12 59.6583 25.2322 59.6198 25.336C59.5813 25.4399 59.5152 25.5386 59.4217 25.6323L54.9275 30.1265C54.789 30.2649 54.6149 30.3357 54.4052 30.339C54.1957 30.3422 54.0185 30.2714 53.8735 30.1265C53.7287 29.9815 53.6562 29.8059 53.6562 29.5995C53.6562 29.3932 53.7287 29.2175 53.8735 29.0725L57.9467 24.9995Z" fill="#D2D3D3"/>
<path d="M22.4573 24.9998L26.5306 29.0728C26.6689 29.2113 26.7397 29.3853 26.7431 29.595C26.7462 29.8045 26.6754 29.9818 26.5306 30.1268C26.3856 30.2716 26.2099 30.344 26.0036 30.344C25.7972 30.344 25.6216 30.2716 25.4766 30.1268L20.9823 25.6325C20.8888 25.5388 20.8228 25.4401 20.7843 25.3363C20.7458 25.2324 20.7266 25.1203 20.7266 24.9998C20.7266 24.8793 20.7458 24.7671 20.7843 24.6633C20.8228 24.5594 20.8888 24.4607 20.9823 24.367L25.4766 19.8728C25.6151 19.7344 25.7891 19.6636 25.9988 19.6603C26.2083 19.6571 26.3856 19.7279 26.5306 19.8728C26.6754 20.0178 26.7478 20.1934 26.7478 20.3998C26.7478 20.6061 26.6754 20.7818 26.5306 20.9268L22.4573 24.9998Z" fill="#D2D3D3"/>
</svg>
