<svg width="108" height="57" viewBox="0 0 108 57" fill="none" xmlns="http://www.w3.org/2000/svg">
<rect x="0.5" y="0.5" width="107" height="56" rx="4.5" stroke="#9747FF" stroke-dasharray="10 5"/>
<path d="M70.25 35.5C69.7642 35.5 69.351 35.3298 69.0105 34.9895C68.6702 34.649 68.5 34.2358 68.5 33.75V22.3077C68.5 21.8219 68.6798 21.3992 69.0395 21.0395C69.3992 20.6798 69.8219 20.5 70.3077 20.5H75.05C75.291 20.5 75.5227 20.5468 75.7453 20.6405C75.9676 20.734 76.1608 20.8628 76.325 21.027L77.798 22.5H86.6635C86.8763 22.5 87.0545 22.5718 87.198 22.7155C87.3417 22.859 87.4135 23.0372 87.4135 23.25C87.4135 23.4628 87.3417 23.641 87.198 23.7845C87.0545 23.9282 86.8763 24 86.6635 24H77.1845L75.1845 22H70.3077C70.2179 22 70.1442 22.0288 70.0865 22.0865C70.0288 22.1442 70 22.2179 70 22.3077V34C70 33.9102 70.0177 33.8765 70.053 33.899C70.0882 33.9215 70.1346 33.9487 70.1923 33.9808L72.1385 27.4827C72.259 27.0943 72.4807 26.7821 72.8038 26.5462C73.1269 26.3102 73.4859 26.1923 73.8808 26.1923H86.7423C87.3551 26.1923 87.8413 26.4358 88.201 26.923C88.5605 27.4102 88.655 27.9416 88.4845 28.5173L86.7615 34.2578C86.6473 34.6333 86.4336 34.9342 86.1203 35.1605C85.8067 35.3868 85.459 35.5 85.077 35.5H70.25ZM71.7635 34H85.0385C85.109 34 85.1715 33.9808 85.226 33.9423C85.2805 33.9038 85.3173 33.8493 85.3365 33.7788L87.0405 28.0865C87.0725 27.984 87.0564 27.8927 86.9923 27.8125C86.9283 27.7323 86.8449 27.6923 86.7423 27.6923H73.8808C73.8103 27.6923 73.7478 27.7115 73.6933 27.75C73.6388 27.7885 73.6019 27.843 73.5827 27.9135L71.7635 34ZM71.7635 34L73.5827 27.9135C73.6019 27.843 73.6179 27.7885 73.6308 27.75L73.65 27.6923L73.6163 27.8125C73.5939 27.8927 73.5667 27.984 73.5345 28.0865L71.8307 33.7788C71.8116 33.8493 71.7956 33.9038 71.7827 33.9423L71.7635 34Z" fill="#D2D3D3"/>
<path d="M24.3077 35.5C23.8026 35.5 23.375 35.325 23.025 34.975C22.675 34.625 22.5 34.1974 22.5 33.6923V22.3077C22.5 21.8026 22.675 21.375 23.025 21.025C23.375 20.675 23.8026 20.5 24.3077 20.5H29.05C29.291 20.5 29.5227 20.5468 29.7453 20.6405C29.9676 20.734 30.1608 20.8628 30.325 21.027L31.798 22.5H39.6923C40.1974 22.5 40.625 22.675 40.975 23.025C41.325 23.375 41.5 23.8026 41.5 24.3077V33.6923C41.5 34.1974 41.325 34.625 40.975 34.975C40.625 35.325 40.1974 35.5 39.6923 35.5H24.3077ZM24.3077 34H39.6923C39.7821 34 39.8558 33.9712 39.9135 33.9135C39.9712 33.8558 40 33.7821 40 33.6923V24.3077C40 24.2179 39.9712 24.1442 39.9135 24.0865C39.8558 24.0288 39.7821 24 39.6923 24H31.1845L29.2713 22.0865C29.2391 22.0545 29.2054 22.0321 29.1702 22.0193C29.1349 22.0064 29.098 22 29.0595 22H24.3077C24.2179 22 24.1442 22.0288 24.0865 22.0865C24.0288 22.1442 24 22.2179 24 22.3077V33.6923C24 33.7821 24.0288 33.8558 24.0865 33.9135C24.1442 33.9712 24.2179 34 24.3077 34Z" fill="#D2D3D3"/>
</svg>
