<svg width="51" height="51" viewBox="0 0 51 51" fill="none" xmlns="http://www.w3.org/2000/svg">
<rect x="0.5" y="0.5" width="50" height="50" rx="4.5" stroke="#9747FF" stroke-dasharray="10 5"/>
<path d="M27.827 33.596V32.2345C27.827 32.114 27.8488 31.9993 27.8923 31.8905C27.9359 31.7815 28.0045 31.6802 28.098 31.5865L33.2557 26.4537C33.3801 26.3359 33.5147 26.2501 33.6595 26.1962C33.8045 26.1424 33.9494 26.1155 34.0943 26.1155C34.2494 26.1155 34.401 26.1449 34.549 26.2037C34.697 26.2627 34.83 26.3512 34.948 26.4692L35.873 27.4038C35.9807 27.5282 36.064 27.6629 36.123 27.8077C36.182 27.9526 36.2115 28.0974 36.2115 28.2423C36.2115 28.3871 36.1846 28.5345 36.1308 28.6845C36.0769 28.8345 35.991 28.9717 35.873 29.096L30.7402 34.2288C30.6467 34.3224 30.5455 34.391 30.4365 34.4345C30.3275 34.4782 30.2128 34.5 30.0922 34.5H28.7308C28.4731 34.5 28.258 34.4138 28.0855 34.2413C27.9132 34.0689 27.827 33.8538 27.827 33.596ZM29.0193 33.3078H29.9693L33.2153 30.046L32.2902 29.102L29.0193 32.3577V33.3078ZM20.3077 34.5C19.8026 34.5 19.375 34.325 19.025 33.975C18.675 33.625 18.5 33.1974 18.5 32.6923V17.3077C18.5 16.8026 18.675 16.375 19.025 16.025C19.375 15.675 19.8026 15.5 20.3077 15.5H27.502C27.743 15.5 27.9748 15.5468 28.1973 15.6405C28.4196 15.734 28.6128 15.8628 28.777 16.027L32.973 20.223C33.1372 20.3872 33.266 20.5804 33.3595 20.8027C33.4532 21.0252 33.5 21.257 33.5 21.498V23.048C33.5 23.2608 33.4282 23.4391 33.2845 23.5828C33.141 23.7262 32.9628 23.798 32.75 23.798C32.5372 23.798 32.359 23.7262 32.2155 23.5828C32.0718 23.4391 32 23.2608 32 23.048V21.5H28.404C28.1462 21.5 27.9311 21.4138 27.7587 21.2413C27.5862 21.0689 27.5 20.8538 27.5 20.596V17H20.3077C20.2307 17 20.1603 17.0321 20.0963 17.0962C20.0321 17.1602 20 17.2307 20 17.3077V32.6923C20 32.7693 20.0321 32.8398 20.0963 32.9038C20.1603 32.9679 20.2307 33 20.3077 33H24.8845C25.0973 33 25.2756 33.0718 25.4193 33.2155C25.5627 33.359 25.6345 33.5372 25.6345 33.75C25.6345 33.9628 25.5627 34.141 25.4193 34.2845C25.2756 34.4282 25.0973 34.5 24.8845 34.5H20.3077ZM32.7653 29.5615L32.2902 29.102L33.2153 30.046L32.7653 29.5615Z" fill="#D2D3D3"/>
</svg>
