<svg width="200" height="200" viewBox="0 0 200 200" fill="none" xmlns="http://www.w3.org/2000/svg">
<path d="M58.8149 148.719H87.6607C89.7941 148.719 91.583 147.997 93.0274 146.552C94.4705 145.109 95.192 143.32 95.192 141.185V124.84C95.192 122.706 94.4705 120.917 93.0274 119.473C91.583 118.03 89.7941 117.308 87.6607 117.308H58.8149C56.6802 117.308 54.8913 118.03 53.4482 119.473C52.0038 120.917 51.2816 122.706 51.2816 124.84V141.185C51.2816 143.32 52.0038 145.109 53.4482 146.552C54.8913 147.997 56.6802 148.719 58.8149 148.719ZM58.8149 107.692H87.6607C89.7941 107.692 91.583 106.97 93.0274 105.527C94.4705 104.083 95.192 102.294 95.192 100.16V58.8147C95.192 56.6799 94.4705 54.891 93.0274 53.448C91.583 52.0035 89.7941 51.2813 87.6607 51.2813H58.8149C56.6802 51.2813 54.8913 52.0035 53.4482 53.448C52.0038 54.891 51.2816 56.6799 51.2816 58.8147V100.16C51.2816 102.294 52.0038 104.083 53.4482 105.527C54.8913 106.97 56.6802 107.692 58.8149 107.692ZM112.34 148.719H141.186C143.32 148.719 145.109 147.997 146.552 146.552C147.997 145.109 148.719 143.32 148.719 141.185V99.8397C148.719 97.7063 147.997 95.9174 146.552 94.473C145.109 93.0299 143.32 92.3084 141.186 92.3084H112.34C110.207 92.3084 108.418 93.0299 106.973 94.473C105.53 95.9174 104.809 97.7063 104.809 99.8397V141.185C104.809 143.32 105.53 145.109 106.973 146.552C108.418 147.997 110.207 148.719 112.34 148.719ZM112.34 82.6917H141.186C143.32 82.6917 145.109 81.9702 146.552 80.5272C147.997 79.0827 148.719 77.2938 148.719 75.1605V58.8147C148.719 56.6799 147.997 54.891 146.552 53.448C145.109 52.0035 143.32 51.2813 141.186 51.2813H112.34C110.207 51.2813 108.418 52.0035 106.973 53.448C105.53 54.891 104.809 56.6799 104.809 58.8147V75.1605C104.809 77.2938 105.53 79.0827 106.973 80.5272C108.418 81.9702 110.207 82.6917 112.34 82.6917ZM44.2316 170.833C40.0219 170.833 36.4587 169.375 33.542 166.458C30.6253 163.542 29.167 159.979 29.167 155.769V44.2313C29.167 40.0216 30.6253 36.4584 33.542 33.5417C36.4587 30.6251 40.0219 29.1667 44.2316 29.1667H155.769C159.979 29.1667 163.542 30.6251 166.459 33.5417C169.375 36.4584 170.834 40.0216 170.834 44.2313V61.5397H179.327C181.098 61.5397 182.582 62.1383 183.78 63.3355C184.978 64.5341 185.577 66.0195 185.577 67.7917C185.577 69.5626 184.978 71.0466 183.78 72.2438C182.582 73.4397 181.098 74.0376 179.327 74.0376H170.834V93.7501H179.327C181.098 93.7501 182.582 94.3494 183.78 95.548C184.978 96.7466 185.577 98.2313 185.577 100.002C185.577 101.774 184.978 103.258 183.78 104.454C182.582 105.651 181.098 106.25 179.327 106.25H170.834V125.963H179.327C181.098 125.963 182.582 126.561 183.78 127.758C184.978 128.957 185.577 130.442 185.577 132.215C185.577 133.985 184.978 135.47 183.78 136.667C182.582 137.863 181.098 138.46 179.327 138.46H170.834V155.769C170.834 159.979 169.375 163.542 166.459 166.458C163.542 169.375 159.979 170.833 155.769 170.833H44.2316ZM44.2316 158.333H155.769C156.411 158.333 156.998 158.066 157.532 157.531C158.066 156.998 158.334 156.41 158.334 155.769V44.2313C158.334 43.5897 158.066 43.0022 157.532 42.4688C156.998 41.9341 156.411 41.6667 155.769 41.6667H44.2316C43.5899 41.6667 43.0024 41.9341 42.4691 42.4688C41.9344 43.0022 41.667 43.5897 41.667 44.2313V155.769C41.667 156.41 41.9344 156.998 42.4691 157.531C43.0024 158.066 43.5899 158.333 44.2316 158.333Z" fill="#5A5C5D"/>
</svg>
