<svg width="54" height="51" viewBox="0 0 54 51" fill="none" xmlns="http://www.w3.org/2000/svg">
<rect x="0.5" y="0.5" width="53" height="50" rx="4.5" stroke="#9747FF" stroke-dasharray="10 5"/>
<path d="M23.0288 22.2346L26.2251 16.9963C26.3186 16.8425 26.4331 16.7328 26.5688 16.6673C26.7043 16.602 26.8474 16.5693 26.9981 16.5693C27.1487 16.5693 27.2918 16.602 27.4273 16.6673C27.563 16.7328 27.6776 16.8425 27.7711 16.9963L30.9673 22.2346C31.0608 22.3853 31.1076 22.5434 31.1076 22.7091C31.1076 22.8749 31.0691 23.0264 30.9923 23.1636C30.9153 23.3008 30.8096 23.4103 30.6751 23.4923C30.5404 23.5743 30.3833 23.6153 30.2038 23.6153H23.7923C23.6121 23.6153 23.4545 23.5739 23.3193 23.4911C23.1841 23.4083 23.079 23.2991 23.0038 23.1636C22.927 23.0284 22.8886 22.8783 22.8886 22.7131C22.8886 22.5479 22.9353 22.3884 23.0288 22.2346ZM32.4981 34.6153C31.3506 34.6153 30.3778 34.2163 29.5798 33.4183C28.7818 32.6203 28.3828 31.6476 28.3828 30.5001C28.3828 29.3526 28.7818 28.3798 29.5798 27.5818C30.3778 26.7838 31.3506 26.3848 32.4981 26.3848C33.6456 26.3848 34.6183 26.7838 35.4163 27.5818C36.2143 28.3798 36.6133 29.3526 36.6133 30.5001C36.6133 31.6476 36.2143 32.6203 35.4163 33.4183C34.6183 34.2163 33.6456 34.6153 32.4981 34.6153ZM18.3828 33.2113V27.7863C18.3828 27.5302 18.4694 27.3158 18.6426 27.1433C18.8159 26.971 19.0306 26.8848 19.2868 26.8848H24.7118C24.968 26.8848 25.1823 26.9714 25.3548 27.1446C25.5271 27.3179 25.6133 27.5327 25.6133 27.7888V33.2138C25.6133 33.47 25.5267 33.6843 25.3536 33.8568C25.1802 34.0292 24.9655 34.1153 24.7093 34.1153H19.2843C19.0281 34.1153 18.8138 34.0288 18.6413 33.8556C18.469 33.6823 18.3828 33.4675 18.3828 33.2113ZM32.4978 33.1156C33.23 33.1156 33.849 32.8628 34.3548 32.3571C34.8606 31.8514 35.1136 31.2325 35.1136 30.5003C35.1136 29.7682 34.8607 29.1492 34.3551 28.6433C33.8494 28.1375 33.2305 27.8846 32.4983 27.8846C31.7661 27.8846 31.1471 28.1374 30.6413 28.6431C30.1355 29.1488 29.8826 29.7677 29.8826 30.4998C29.8826 31.232 30.1354 31.851 30.6411 32.3568C31.1467 32.8627 31.7656 33.1156 32.4978 33.1156ZM19.8826 32.6156H24.1136V28.3846H19.8826V32.6156ZM24.8366 22.1156H29.1596L26.9981 18.6386L24.8366 22.1156Z" fill="#D2D3D3"/>
</svg>
