<svg width="79" height="46" viewBox="0 0 79 46" fill="none" xmlns="http://www.w3.org/2000/svg">
<rect x="0.5" y="0.5" width="78" height="45" rx="4.5" stroke="#9747FF" stroke-dasharray="10 5"/>
<path d="M57.0005 21.454L52.9275 25.5273C52.789 25.6656 52.6149 25.7364 52.4052 25.7398C52.1957 25.7429 52.0185 25.6721 51.8735 25.5273C51.7287 25.3823 51.6562 25.2066 51.6562 25.0003C51.6562 24.7939 51.7287 24.6183 51.8735 24.4733L56.3678 19.979C56.5486 19.7983 56.7595 19.708 57.0005 19.708C57.2415 19.708 57.4524 19.7983 57.6333 19.979L62.1275 24.4733C62.2658 24.6118 62.3367 24.7858 62.34 24.9955C62.3432 25.205 62.2723 25.3823 62.1275 25.5273C61.9825 25.6721 61.8068 25.7445 61.6005 25.7445C61.3942 25.7445 61.2185 25.6721 61.0735 25.5273L57.0005 21.454Z" fill="#D2D3D3"/>
<path d="M22.0037 25.6765C21.8832 25.6765 21.771 25.6573 21.6672 25.6188C21.5633 25.5803 21.4646 25.5143 21.3709 25.4208L16.8767 20.9265C16.7383 20.788 16.6675 20.6139 16.6642 20.4043C16.661 20.1948 16.7318 20.0175 16.8767 19.8725C17.0217 19.7277 17.1973 19.6553 17.4037 19.6553C17.61 19.6553 17.7857 19.7277 17.9307 19.8725L22.0037 23.9458L26.0767 19.8725C26.2152 19.7342 26.3892 19.6634 26.5989 19.66C26.8084 19.6569 26.9857 19.7277 27.1307 19.8725C27.2755 20.0175 27.3479 20.1932 27.3479 20.3995C27.3479 20.6059 27.2755 20.7815 27.1307 20.9265L22.6364 25.4208C22.5427 25.5143 22.444 25.5803 22.3402 25.6188C22.2363 25.6573 22.1242 25.6765 22.0037 25.6765Z" fill="#D2D3D3"/>
</svg>
