<svg width="48" height="52" viewBox="0 0 48 52" fill="none" xmlns="http://www.w3.org/2000/svg">
<rect x="0.5" y="0.5" width="47" height="51" rx="4.5" stroke="#9747FF" stroke-dasharray="10 5"/>
<path d="M14.5 24C14.5 22.6872 14.7497 21.4529 15.249 20.2973C15.7483 19.1414 16.4256 18.1359 17.2808 17.2807C18.1359 16.4256 19.1414 15.7483 20.2973 15.249C21.4529 14.7497 22.6872 14.5 24 14.5C26.1552 14.5 28.0539 15.133 29.6962 16.399C31.3384 17.6652 32.448 19.2777 33.025 21.2365C33.1032 21.4622 33.0993 21.683 33.0135 21.899C32.9275 22.1152 32.7749 22.254 32.5557 22.3155C32.3468 22.3667 32.1551 22.3337 31.9807 22.2165C31.8064 22.0992 31.6853 21.936 31.6173 21.727C31.2943 20.5667 30.7353 19.5343 29.9405 18.6298C29.1455 17.7253 28.1653 17.0422 27 16.5807V17C27 17.55 26.8042 18.0208 26.4125 18.4125C26.0208 18.8042 25.55 19 25 19H23V21C23 21.2833 22.9042 21.5208 22.7125 21.7125C22.5208 21.9042 22.2833 22 22 22H20V24H21.0192C21.2769 24 21.492 24.0863 21.6645 24.2587C21.8368 24.4311 21.923 24.6461 21.923 24.9038V27H21L16.2 22.2C16.15 22.5 16.1042 22.8 16.0625 23.1C16.0208 23.4 16 23.7 16 24C16 26.0718 16.6917 27.8708 18.075 29.397C19.4583 30.9233 21.1923 31.7808 23.277 31.9693C23.486 31.9897 23.6588 32.0718 23.7952 32.2155C23.9318 32.359 24 32.5372 24 32.75C24 32.9628 23.925 33.141 23.775 33.2845C23.625 33.4282 23.4455 33.4897 23.2365 33.4693C20.7763 33.2704 18.7052 32.2694 17.023 30.4663C15.341 28.6631 14.5 26.5077 14.5 24ZM32.5347 32.5885L29.7365 29.8095C29.4122 30.016 29.0628 30.1827 28.6885 30.3095C28.3142 30.4365 27.918 30.5 27.5 30.5C26.3847 30.5 25.4392 30.1122 24.6635 29.3365C23.8878 28.5608 23.5 27.6153 23.5 26.5C23.5 25.3847 23.8878 24.4392 24.6635 23.6635C25.4392 22.8878 26.3847 22.5 27.5 22.5C28.6153 22.5 29.5608 22.8878 30.3365 23.6635C31.1122 24.4392 31.5 25.3847 31.5 26.5C31.5 26.9243 31.4349 27.3253 31.3048 27.703C31.1746 28.0805 31.0031 28.4314 30.7903 28.7557L33.5885 31.5347C33.7333 31.6731 33.8057 31.8471 33.8057 32.0568C33.8057 32.2664 33.7333 32.4437 33.5885 32.5885C33.45 32.727 33.2759 32.7962 33.0663 32.7962C32.8568 32.7962 32.6796 32.727 32.5347 32.5885ZM27.5 29C28.2 29 28.7917 28.7583 29.275 28.275C29.7583 27.7917 30 27.2 30 26.5C30 25.8 29.7583 25.2083 29.275 24.725C28.7917 24.2417 28.2 24 27.5 24C26.8 24 26.2083 24.2417 25.725 24.725C25.2417 25.2083 25 25.8 25 26.5C25 27.2 25.2417 27.7917 25.725 28.275C26.2083 28.7583 26.8 29 27.5 29Z" fill="#D2D3D3"/>
</svg>
