<svg width="53" height="52" viewBox="0 0 53 52" fill="none" xmlns="http://www.w3.org/2000/svg">
<rect x="0.5" y="0.5" width="52" height="51" rx="4.5" stroke="#9747FF" stroke-dasharray="10 5"/>
<path d="M25.8908 35.5C25.5498 35.5 25.2553 35.3868 25.0073 35.1605C24.7591 34.9343 24.6081 34.6558 24.5543 34.325L24.31 32.4538C24.0422 32.3641 23.7675 32.2385 23.486 32.077C23.2047 31.9153 22.9531 31.7423 22.7313 31.5577L20.9985 32.2943C20.6844 32.4328 20.3687 32.4462 20.0515 32.3345C19.7342 32.223 19.4877 32.0205 19.312 31.727L18.185 29.773C18.0094 29.4795 17.9588 29.1689 18.0333 28.8413C18.1076 28.5138 18.2781 28.2436 18.5448 28.0308L20.0428 26.9058C20.0198 26.7571 20.0034 26.6077 19.9938 26.4578C19.9841 26.3077 19.9793 26.1583 19.9793 26.0095C19.9793 25.8673 19.9841 25.7228 19.9938 25.576C20.0034 25.4292 20.0198 25.2686 20.0428 25.0943L18.5448 23.9693C18.2781 23.7564 18.1092 23.4846 18.038 23.1538C17.9669 22.8231 18.0191 22.5109 18.1948 22.2173L19.312 20.2923C19.4877 20.0051 19.7342 19.8042 20.0515 19.6895C20.3687 19.5747 20.6844 19.5865 20.9985 19.725L22.7215 20.452C22.9627 20.261 23.2201 20.0863 23.4938 19.928C23.7674 19.7697 24.0364 19.6424 24.3005 19.5462L24.5543 17.675C24.6081 17.3442 24.7591 17.0657 25.0073 16.8395C25.2553 16.6132 25.5498 16.5 25.8908 16.5H28.1063C28.4473 16.5 28.7418 16.6132 28.9898 16.8395C29.2379 17.0657 29.3889 17.3442 29.4428 17.675L29.687 19.5557C29.987 19.6647 30.2584 19.792 30.5013 19.9375C30.7443 20.083 30.9895 20.2545 31.237 20.452L33.0083 19.725C33.3223 19.5865 33.6379 19.5747 33.9553 19.6895C34.2726 19.8042 34.519 20.0051 34.6945 20.2923L35.812 22.227C35.9877 22.5205 36.0383 22.8311 35.9638 23.1587C35.8894 23.4862 35.7189 23.7564 35.4523 23.9693L33.9158 25.123C33.9516 25.2845 33.9712 25.4355 33.9745 25.576C33.9777 25.7163 33.9793 25.8577 33.9793 26C33.9793 26.1358 33.976 26.274 33.9695 26.4145C33.9632 26.5548 33.9402 26.7154 33.9005 26.8963L35.408 28.0308C35.6747 28.2436 35.8469 28.5138 35.9245 28.8413C36.002 29.1689 35.9529 29.4795 35.7773 29.773L34.6445 31.7172C34.469 32.0109 34.221 32.2135 33.9005 32.325C33.58 32.4365 33.2627 32.423 32.9485 32.2845L31.237 31.548C30.9895 31.7455 30.7369 31.9202 30.4793 32.072C30.2216 32.224 29.9575 32.3481 29.687 32.4443L29.4428 34.325C29.3889 34.6558 29.2379 34.9343 28.9898 35.1605C28.7418 35.3868 28.4473 35.5 28.1063 35.5H25.8908ZM25.9985 34H27.964L28.3235 31.3212C28.8339 31.1879 29.3002 30.9985 29.7225 30.753C30.145 30.5073 30.5524 30.1916 30.9448 29.8057L33.4293 30.85L34.414 29.15L32.2448 27.5155C32.3281 27.2565 32.3848 27.0026 32.4148 26.7537C32.4449 26.5051 32.46 26.2538 32.46 26C32.46 25.7397 32.4449 25.4884 32.4148 25.2463C32.3848 25.0039 32.3281 24.7564 32.2448 24.5038L34.433 22.85L33.4485 21.15L30.935 22.2095C30.6004 21.8518 30.1994 21.5358 29.7323 21.2615C29.2649 20.9872 28.7922 20.7929 28.314 20.6788L27.9985 18H26.014L25.683 20.6693C25.1729 20.7898 24.7018 20.9743 24.2698 21.223C23.8376 21.4718 23.4254 21.7923 23.033 22.1845L20.5485 21.15L19.564 22.85L21.7235 24.4595C21.6402 24.6968 21.5819 24.9437 21.5485 25.2C21.5152 25.4563 21.4985 25.7262 21.4985 26.0095C21.4985 26.2698 21.5152 26.525 21.5485 26.775C21.5819 27.025 21.637 27.2718 21.714 27.5155L19.564 29.15L20.5485 30.85L23.0235 29.8C23.403 30.1897 23.8088 30.5089 24.2408 30.7578C24.6729 31.0064 25.1505 31.1974 25.6735 31.3307L25.9985 34ZM27.01 29C27.842 29 28.55 28.708 29.134 28.124C29.718 27.54 30.01 26.832 30.01 26C30.01 25.168 29.718 24.46 29.134 23.876C28.55 23.292 27.842 23 27.01 23C26.1677 23 25.4571 23.292 24.8783 23.876C24.2994 24.46 24.01 25.168 24.01 26C24.01 26.832 24.2994 27.54 24.8783 28.124C25.4571 28.708 26.1677 29 27.01 29Z" fill="#D2D3D3"/>
</svg>
